M48
METRIC,LZ,000.000
;FILE_FORMAT=3:3
;TYPE=PLATED
;Layer: PTH_Through
;EasyEDA v6.5.5, 2022-05-12 14:51:26
;adf74ae4be104b6fa4aa75e98640d5de,defc1f93b7bc4f92b0c06f3051cee8fa,10
;Gerber Generator version 0.2
;Holesize 1 = 0.800 mm
T01C0.800
;Holesize 2 = 1.000 mm
T02C1.000
;Holesize 3 = 1.200 mm
T03C1.200
%
G05
G90
T01
X002032Y-011176
X002032Y-009176
X002032Y-007176
X002032Y-005176
X002032Y-003176
X002032Y-001176
X002032Y000824
X002032Y002824
T02
X-004572Y-025146
X003556Y-014732
X-004572Y-027686
X-004572Y-022606
X001778Y014478
X004318Y014478
X-001270Y-028448
X001270Y-028448
X003810Y-028448
T03
X000000Y038100
X-005080Y038100
X000000Y-038100
X005080Y-038100
M30
