G04 Layer: BottomSolderMaskLayer*
G04 EasyEDA v6.5.5, 2022-05-12 14:51:26*
G04 adf74ae4be104b6fa4aa75e98640d5de,defc1f93b7bc4f92b0c06f3051cee8fa,10*
G04 Gerber Generator version 0.2*
G04 Scale: 100 percent, Rotated: No, Reflected: No *
G04 Dimensions in millimeters *
G04 leading zeros omitted , absolute positions ,4 integer and 5 decimal *
%FSLAX45Y45*%
%MOMM*%

%ADD27C,1.9016*%
%ADD29C,2.5016*%
%ADD30C,1.5016*%
%ADD31C,0.6756*%

%LPD*%
D31*
X342900Y1853692D02*
G01*
X342900Y1707540D01*
X215900Y1853692D02*
G01*
X215900Y1707540D01*
X88900Y1853692D02*
G01*
X88900Y1707540D01*
X-38100Y1853692D02*
G01*
X-38100Y1707540D01*
X342900Y2407259D02*
G01*
X342900Y2261107D01*
X215900Y2407259D02*
G01*
X215900Y2261107D01*
X88900Y2407259D02*
G01*
X88900Y2261107D01*
X-38100Y2407259D02*
G01*
X-38100Y2261107D01*
D27*
X-127000Y-2844800D02*
G01*
X-127000Y-2844800D01*
X127000Y-2844800D02*
G01*
X127000Y-2844800D01*
G36*
X-208099Y-2301278D02*
G01*
X-209623Y-2301024D01*
X-211147Y-2300262D01*
X-212163Y-2299246D01*
X-212925Y-2297722D01*
X-213179Y-2296198D01*
X-213105Y-2296160D01*
X-213105Y-2123439D01*
X-213179Y-2123396D01*
X-212925Y-2121872D01*
X-212163Y-2120348D01*
X-211147Y-2119332D01*
X-209623Y-2118570D01*
X-208099Y-2118316D01*
X-208026Y-2118360D01*
X-59689Y-2118360D01*
X-59601Y-2118316D01*
X-58077Y-2118570D01*
X-56553Y-2119332D01*
X-55537Y-2120348D01*
X-54775Y-2121872D01*
X-54521Y-2123396D01*
X-54610Y-2123439D01*
X-54610Y-2296160D01*
X-54521Y-2296198D01*
X-54775Y-2297722D01*
X-55537Y-2299246D01*
X-56553Y-2300262D01*
X-58077Y-2301024D01*
X-59601Y-2301278D01*
X-59689Y-2301239D01*
X-208026Y-2301239D01*
G37*
G36*
X110401Y-2301278D02*
G01*
X108877Y-2301024D01*
X107353Y-2300262D01*
X106337Y-2299246D01*
X105575Y-2297722D01*
X105321Y-2296198D01*
X105410Y-2296160D01*
X105410Y-2123439D01*
X105321Y-2123396D01*
X105575Y-2121872D01*
X106337Y-2120348D01*
X107353Y-2119332D01*
X108877Y-2118570D01*
X110401Y-2118316D01*
X110489Y-2118360D01*
X258826Y-2118360D01*
X258899Y-2118316D01*
X260423Y-2118570D01*
X261947Y-2119332D01*
X262963Y-2120348D01*
X263725Y-2121872D01*
X263979Y-2123396D01*
X263905Y-2123439D01*
X263905Y-2296160D01*
X263979Y-2296198D01*
X263725Y-2297722D01*
X262963Y-2299246D01*
X261947Y-2300262D01*
X260423Y-2301024D01*
X258899Y-2301278D01*
X258826Y-2301239D01*
X110489Y-2301239D01*
G37*
G36*
X-360499Y-1894878D02*
G01*
X-362023Y-1894624D01*
X-363547Y-1893862D01*
X-364563Y-1892846D01*
X-365325Y-1891322D01*
X-365579Y-1889798D01*
X-365505Y-1889760D01*
X-365505Y-1717039D01*
X-365579Y-1716996D01*
X-365325Y-1715472D01*
X-364563Y-1713948D01*
X-363547Y-1712932D01*
X-362023Y-1712170D01*
X-360499Y-1711916D01*
X-360426Y-1711960D01*
X-212089Y-1711960D01*
X-212001Y-1711916D01*
X-210477Y-1712170D01*
X-208953Y-1712932D01*
X-207937Y-1713948D01*
X-207175Y-1715472D01*
X-206921Y-1716996D01*
X-207010Y-1717039D01*
X-207010Y-1889760D01*
X-206921Y-1889798D01*
X-207175Y-1891322D01*
X-207937Y-1892846D01*
X-208953Y-1893862D01*
X-210477Y-1894624D01*
X-212001Y-1894878D01*
X-212089Y-1894839D01*
X-360426Y-1894839D01*
G37*
G36*
X-41998Y-1894878D02*
G01*
X-43522Y-1894624D01*
X-45046Y-1893862D01*
X-46062Y-1892846D01*
X-46824Y-1891322D01*
X-47078Y-1889798D01*
X-46989Y-1889760D01*
X-46989Y-1717039D01*
X-47078Y-1716996D01*
X-46824Y-1715472D01*
X-46062Y-1713948D01*
X-45046Y-1712932D01*
X-43522Y-1712170D01*
X-41998Y-1711916D01*
X-41910Y-1711960D01*
X106426Y-1711960D01*
X106499Y-1711916D01*
X108023Y-1712170D01*
X109547Y-1712932D01*
X110563Y-1713948D01*
X111325Y-1715472D01*
X111579Y-1716996D01*
X111505Y-1717039D01*
X111505Y-1889760D01*
X111579Y-1889798D01*
X111325Y-1891322D01*
X110563Y-1892846D01*
X109547Y-1893862D01*
X108023Y-1894624D01*
X106499Y-1894878D01*
X106426Y-1894839D01*
X-41910Y-1894839D01*
G37*
G36*
X163576Y3288029D02*
G01*
X163700Y3288063D01*
X162176Y3288317D01*
X160652Y3289079D01*
X159636Y3290095D01*
X158874Y3291619D01*
X158620Y3293143D01*
X158495Y3293110D01*
X158495Y3463289D01*
X158620Y3463241D01*
X158874Y3464765D01*
X159636Y3466289D01*
X160652Y3467305D01*
X162176Y3468067D01*
X163700Y3468321D01*
X163576Y3468370D01*
X284479Y3468370D01*
X284452Y3468321D01*
X285976Y3468067D01*
X287500Y3467305D01*
X288516Y3466289D01*
X289278Y3464765D01*
X289532Y3463241D01*
X289560Y3463289D01*
X289560Y3293110D01*
X289532Y3293143D01*
X289278Y3291619D01*
X288516Y3290095D01*
X287500Y3289079D01*
X285976Y3288317D01*
X284452Y3288063D01*
X284479Y3288029D01*
G37*
G36*
X-132079Y3288029D02*
G01*
X-132052Y3288063D01*
X-133576Y3288317D01*
X-135100Y3289079D01*
X-136116Y3290095D01*
X-136878Y3291619D01*
X-137132Y3293143D01*
X-137160Y3293110D01*
X-137160Y3463289D01*
X-137132Y3463241D01*
X-136878Y3464765D01*
X-136116Y3466289D01*
X-135100Y3467305D01*
X-133576Y3468067D01*
X-132052Y3468321D01*
X-132079Y3468370D01*
X-11176Y3468370D01*
X-11300Y3468321D01*
X-9776Y3468067D01*
X-8252Y3467305D01*
X-7236Y3466289D01*
X-6474Y3464765D01*
X-6220Y3463241D01*
X-6095Y3463289D01*
X-6095Y3293110D01*
X-6220Y3293143D01*
X-6474Y3291619D01*
X-7236Y3290095D01*
X-8252Y3289079D01*
X-9776Y3288317D01*
X-11300Y3288063D01*
X-11176Y3288029D01*
G37*
G36*
X20320Y2653029D02*
G01*
X20347Y2653065D01*
X18823Y2653319D01*
X17299Y2654081D01*
X16283Y2655097D01*
X15521Y2656621D01*
X15267Y2658145D01*
X15239Y2658110D01*
X15239Y2828289D01*
X15267Y2828244D01*
X15521Y2829768D01*
X16283Y2831292D01*
X17299Y2832308D01*
X18823Y2833070D01*
X20347Y2833324D01*
X20320Y2833370D01*
X141223Y2833370D01*
X141099Y2833324D01*
X142623Y2833070D01*
X144147Y2832308D01*
X145163Y2831292D01*
X145925Y2829768D01*
X146179Y2828244D01*
X146304Y2828289D01*
X146304Y2658110D01*
X146179Y2658145D01*
X145925Y2656621D01*
X145163Y2655097D01*
X144147Y2654081D01*
X142623Y2653319D01*
X141099Y2653065D01*
X141223Y2653029D01*
G37*
G36*
X315976Y2653029D02*
G01*
X316100Y2653065D01*
X314576Y2653319D01*
X313052Y2654081D01*
X312036Y2655097D01*
X311274Y2656621D01*
X311020Y2658145D01*
X310895Y2658110D01*
X310895Y2828289D01*
X311020Y2828244D01*
X311274Y2829768D01*
X312036Y2831292D01*
X313052Y2832308D01*
X314576Y2833070D01*
X316100Y2833324D01*
X315976Y2833370D01*
X436879Y2833370D01*
X436852Y2833324D01*
X438376Y2833070D01*
X439900Y2832308D01*
X440916Y2831292D01*
X441678Y2829768D01*
X441932Y2828244D01*
X441960Y2828289D01*
X441960Y2658110D01*
X441932Y2658145D01*
X441678Y2656621D01*
X440916Y2655097D01*
X439900Y2654081D01*
X438376Y2653319D01*
X436852Y2653065D01*
X436879Y2653029D01*
G37*
G36*
X-132079Y2932429D02*
G01*
X-132052Y2932465D01*
X-133576Y2932719D01*
X-135100Y2933481D01*
X-136116Y2934497D01*
X-136878Y2936021D01*
X-137132Y2937545D01*
X-137160Y2937510D01*
X-137160Y3107689D01*
X-137132Y3107644D01*
X-136878Y3109168D01*
X-136116Y3110692D01*
X-135100Y3111708D01*
X-133576Y3112470D01*
X-132052Y3112724D01*
X-132079Y3112770D01*
X-11176Y3112770D01*
X-11300Y3112724D01*
X-9776Y3112470D01*
X-8252Y3111708D01*
X-7236Y3110692D01*
X-6474Y3109168D01*
X-6220Y3107644D01*
X-6095Y3107689D01*
X-6095Y2937510D01*
X-6220Y2937545D01*
X-6474Y2936021D01*
X-7236Y2934497D01*
X-8252Y2933481D01*
X-9776Y2932719D01*
X-11300Y2932465D01*
X-11176Y2932429D01*
G37*
G36*
X163576Y2932429D02*
G01*
X163700Y2932465D01*
X162176Y2932719D01*
X160652Y2933481D01*
X159636Y2934497D01*
X158874Y2936021D01*
X158620Y2937545D01*
X158495Y2937510D01*
X158495Y3107689D01*
X158620Y3107644D01*
X158874Y3109168D01*
X159636Y3110692D01*
X160652Y3111708D01*
X162176Y3112470D01*
X163700Y3112724D01*
X163576Y3112770D01*
X284479Y3112770D01*
X284452Y3112724D01*
X285976Y3112470D01*
X287500Y3111708D01*
X288516Y3110692D01*
X289278Y3109168D01*
X289532Y3107644D01*
X289560Y3107689D01*
X289560Y2937510D01*
X289532Y2937545D01*
X289278Y2936021D01*
X288516Y2934497D01*
X287500Y2933481D01*
X285976Y2932719D01*
X284452Y2932465D01*
X284479Y2932429D01*
G37*
G36*
X372110Y-374904D02*
G01*
X372150Y-374779D01*
X370626Y-374525D01*
X369102Y-373763D01*
X368086Y-372747D01*
X367324Y-371223D01*
X367070Y-369699D01*
X367029Y-369823D01*
X367029Y-248920D01*
X367070Y-248947D01*
X367324Y-247423D01*
X368086Y-245899D01*
X369102Y-244883D01*
X370626Y-244121D01*
X372150Y-243867D01*
X372110Y-243839D01*
X542289Y-243839D01*
X542249Y-243867D01*
X543773Y-244121D01*
X545297Y-244883D01*
X546313Y-245899D01*
X547075Y-247423D01*
X547329Y-248947D01*
X547370Y-248920D01*
X547370Y-369823D01*
X547329Y-369699D01*
X547075Y-371223D01*
X546313Y-372747D01*
X545297Y-373763D01*
X543773Y-374525D01*
X542249Y-374779D01*
X542289Y-374904D01*
G37*
G36*
X372110Y-670560D02*
G01*
X372150Y-670532D01*
X370626Y-670278D01*
X369102Y-669516D01*
X368086Y-668500D01*
X367324Y-666976D01*
X367070Y-665452D01*
X367029Y-665479D01*
X367029Y-544576D01*
X367070Y-544700D01*
X367324Y-543176D01*
X368086Y-541652D01*
X369102Y-540636D01*
X370626Y-539874D01*
X372150Y-539620D01*
X372110Y-539495D01*
X542289Y-539495D01*
X542249Y-539620D01*
X543773Y-539874D01*
X545297Y-540636D01*
X546313Y-541652D01*
X547075Y-543176D01*
X547329Y-544700D01*
X547370Y-544576D01*
X547370Y-665479D01*
X547329Y-665452D01*
X547075Y-666976D01*
X546313Y-668500D01*
X545297Y-669516D01*
X543773Y-670278D01*
X542249Y-670532D01*
X542289Y-670560D01*
G37*
G36*
X96520Y976629D02*
G01*
X96547Y976668D01*
X95023Y976922D01*
X93499Y977684D01*
X92483Y978700D01*
X91721Y980224D01*
X91467Y981748D01*
X91439Y981710D01*
X91439Y1151889D01*
X91467Y1151846D01*
X91721Y1153370D01*
X92483Y1154894D01*
X93499Y1155910D01*
X95023Y1156672D01*
X96547Y1156926D01*
X96520Y1156970D01*
X217423Y1156970D01*
X217299Y1156926D01*
X218823Y1156672D01*
X220347Y1155910D01*
X221363Y1154894D01*
X222125Y1153370D01*
X222379Y1151846D01*
X222504Y1151889D01*
X222504Y981710D01*
X222379Y981748D01*
X222125Y980224D01*
X221363Y978700D01*
X220347Y977684D01*
X218823Y976922D01*
X217299Y976668D01*
X217423Y976629D01*
G37*
G36*
X392176Y976629D02*
G01*
X392300Y976668D01*
X390776Y976922D01*
X389252Y977684D01*
X388236Y978700D01*
X387474Y980224D01*
X387220Y981748D01*
X387095Y981710D01*
X387095Y1151889D01*
X387220Y1151846D01*
X387474Y1153370D01*
X388236Y1154894D01*
X389252Y1155910D01*
X390776Y1156672D01*
X392300Y1156926D01*
X392176Y1156970D01*
X513079Y1156970D01*
X513052Y1156926D01*
X514576Y1156672D01*
X516100Y1155910D01*
X517116Y1154894D01*
X517878Y1153370D01*
X518132Y1151846D01*
X518160Y1151889D01*
X518160Y981710D01*
X518132Y981748D01*
X517878Y980224D01*
X517116Y978700D01*
X516100Y977684D01*
X514576Y976922D01*
X513052Y976668D01*
X513079Y976629D01*
G37*
G36*
X-217423Y1306829D02*
G01*
X-217299Y1306868D01*
X-218823Y1307122D01*
X-220347Y1307884D01*
X-221363Y1308900D01*
X-222125Y1310424D01*
X-222379Y1311948D01*
X-222504Y1311910D01*
X-222504Y1482089D01*
X-222379Y1482046D01*
X-222125Y1483570D01*
X-221363Y1485094D01*
X-220347Y1486110D01*
X-218823Y1486872D01*
X-217299Y1487126D01*
X-217423Y1487170D01*
X-96520Y1487170D01*
X-96547Y1487126D01*
X-95023Y1486872D01*
X-93499Y1486110D01*
X-92483Y1485094D01*
X-91721Y1483570D01*
X-91467Y1482046D01*
X-91439Y1482089D01*
X-91439Y1311910D01*
X-91467Y1311948D01*
X-91721Y1310424D01*
X-92483Y1308900D01*
X-93499Y1307884D01*
X-95023Y1307122D01*
X-96547Y1306868D01*
X-96520Y1306829D01*
G37*
G36*
X-513079Y1306829D02*
G01*
X-513052Y1306868D01*
X-514576Y1307122D01*
X-516100Y1307884D01*
X-517116Y1308900D01*
X-517878Y1310424D01*
X-518132Y1311948D01*
X-518160Y1311910D01*
X-518160Y1482089D01*
X-518132Y1482046D01*
X-517878Y1483570D01*
X-517116Y1485094D01*
X-516100Y1486110D01*
X-514576Y1486872D01*
X-513052Y1487126D01*
X-513079Y1487170D01*
X-392176Y1487170D01*
X-392300Y1487126D01*
X-390776Y1486872D01*
X-389252Y1486110D01*
X-388236Y1485094D01*
X-387474Y1483570D01*
X-387220Y1482046D01*
X-387095Y1482089D01*
X-387095Y1311910D01*
X-387220Y1311948D01*
X-387474Y1310424D01*
X-388236Y1308900D01*
X-389252Y1307884D01*
X-390776Y1307122D01*
X-392300Y1306868D01*
X-392176Y1306829D01*
G37*
G36*
X87376Y671829D02*
G01*
X87500Y671868D01*
X85976Y672122D01*
X84452Y672884D01*
X83436Y673900D01*
X82674Y675424D01*
X82420Y676948D01*
X82295Y676910D01*
X82295Y847089D01*
X82420Y847046D01*
X82674Y848570D01*
X83436Y850094D01*
X84452Y851110D01*
X85976Y851872D01*
X87500Y852126D01*
X87376Y852170D01*
X208279Y852170D01*
X208252Y852126D01*
X209776Y851872D01*
X211300Y851110D01*
X212316Y850094D01*
X213078Y848570D01*
X213332Y847046D01*
X213360Y847089D01*
X213360Y676910D01*
X213332Y676948D01*
X213078Y675424D01*
X212316Y673900D01*
X211300Y672884D01*
X209776Y672122D01*
X208252Y671868D01*
X208279Y671829D01*
G37*
G36*
X-208279Y671829D02*
G01*
X-208252Y671868D01*
X-209776Y672122D01*
X-211300Y672884D01*
X-212316Y673900D01*
X-213078Y675424D01*
X-213332Y676948D01*
X-213360Y676910D01*
X-213360Y847089D01*
X-213332Y847046D01*
X-213078Y848570D01*
X-212316Y850094D01*
X-211300Y851110D01*
X-209776Y851872D01*
X-208252Y852126D01*
X-208279Y852170D01*
X-87376Y852170D01*
X-87500Y852126D01*
X-85976Y851872D01*
X-84452Y851110D01*
X-83436Y850094D01*
X-82674Y848570D01*
X-82420Y847046D01*
X-82295Y847089D01*
X-82295Y676910D01*
X-82420Y676948D01*
X-82674Y675424D01*
X-83436Y673900D01*
X-84452Y672884D01*
X-85976Y672122D01*
X-87500Y671868D01*
X-87376Y671829D01*
G37*
G36*
X372110Y-984504D02*
G01*
X372150Y-984377D01*
X370626Y-984122D01*
X369102Y-983361D01*
X368086Y-982345D01*
X367324Y-980820D01*
X367070Y-979296D01*
X367029Y-979423D01*
X367029Y-858520D01*
X367070Y-858545D01*
X367324Y-857021D01*
X368086Y-855497D01*
X369102Y-854481D01*
X370626Y-853719D01*
X372150Y-853465D01*
X372110Y-853439D01*
X542289Y-853439D01*
X542249Y-853465D01*
X543773Y-853719D01*
X545297Y-854481D01*
X546313Y-855497D01*
X547075Y-857021D01*
X547329Y-858545D01*
X547370Y-858520D01*
X547370Y-979423D01*
X547329Y-979296D01*
X547075Y-980820D01*
X546313Y-982345D01*
X545297Y-983361D01*
X543773Y-984122D01*
X542249Y-984377D01*
X542289Y-984504D01*
G37*
G36*
X372110Y-1280160D02*
G01*
X372150Y-1280129D01*
X370626Y-1279875D01*
X369102Y-1279113D01*
X368086Y-1278097D01*
X367324Y-1276573D01*
X367070Y-1275049D01*
X367029Y-1275079D01*
X367029Y-1154176D01*
X367070Y-1154297D01*
X367324Y-1152773D01*
X368086Y-1151249D01*
X369102Y-1150233D01*
X370626Y-1149471D01*
X372150Y-1149217D01*
X372110Y-1149095D01*
X542289Y-1149095D01*
X542249Y-1149217D01*
X543773Y-1149471D01*
X545297Y-1150233D01*
X546313Y-1151249D01*
X547075Y-1152773D01*
X547329Y-1154297D01*
X547370Y-1154176D01*
X547370Y-1275079D01*
X547329Y-1275049D01*
X547075Y-1276573D01*
X546313Y-1278097D01*
X545297Y-1279113D01*
X543773Y-1279875D01*
X542249Y-1280129D01*
X542289Y-1280160D01*
G37*
G36*
X-259079Y-1563370D02*
G01*
X-259052Y-1563326D01*
X-260576Y-1563072D01*
X-262100Y-1562310D01*
X-263116Y-1561294D01*
X-263878Y-1559770D01*
X-264132Y-1558246D01*
X-264160Y-1558289D01*
X-264160Y-1388110D01*
X-264132Y-1388148D01*
X-263878Y-1386624D01*
X-263116Y-1385100D01*
X-262100Y-1384084D01*
X-260576Y-1383322D01*
X-259052Y-1383068D01*
X-259079Y-1383029D01*
X-138176Y-1383029D01*
X-138300Y-1383068D01*
X-136776Y-1383322D01*
X-135252Y-1384084D01*
X-134236Y-1385100D01*
X-133474Y-1386624D01*
X-133220Y-1388148D01*
X-133095Y-1388110D01*
X-133095Y-1558289D01*
X-133220Y-1558246D01*
X-133474Y-1559770D01*
X-134236Y-1561294D01*
X-135252Y-1562310D01*
X-136776Y-1563072D01*
X-138300Y-1563326D01*
X-138176Y-1563370D01*
G37*
G36*
X36576Y-1563370D02*
G01*
X36700Y-1563326D01*
X35176Y-1563072D01*
X33652Y-1562310D01*
X32636Y-1561294D01*
X31874Y-1559770D01*
X31620Y-1558246D01*
X31495Y-1558289D01*
X31495Y-1388110D01*
X31620Y-1388148D01*
X31874Y-1386624D01*
X32636Y-1385100D01*
X33652Y-1384084D01*
X35176Y-1383322D01*
X36700Y-1383068D01*
X36576Y-1383029D01*
X157479Y-1383029D01*
X157452Y-1383068D01*
X158976Y-1383322D01*
X160500Y-1384084D01*
X161516Y-1385100D01*
X162278Y-1386624D01*
X162532Y-1388148D01*
X162560Y-1388110D01*
X162560Y-1558289D01*
X162532Y-1558246D01*
X162278Y-1559770D01*
X161516Y-1561294D01*
X160500Y-1562310D01*
X158976Y-1563072D01*
X157452Y-1563326D01*
X157479Y-1563370D01*
G37*
G36*
X-547199Y-2609679D02*
G01*
X-548723Y-2609425D01*
X-550247Y-2608663D01*
X-551263Y-2607647D01*
X-552025Y-2606123D01*
X-552279Y-2604599D01*
X-552195Y-2604515D01*
X-552195Y-2424684D01*
X-552279Y-2424600D01*
X-552025Y-2423076D01*
X-551263Y-2421552D01*
X-550247Y-2420536D01*
X-548723Y-2419774D01*
X-547199Y-2419520D01*
X-547115Y-2419604D01*
X-367284Y-2419604D01*
X-367200Y-2419520D01*
X-365676Y-2419774D01*
X-364152Y-2420536D01*
X-363136Y-2421552D01*
X-362374Y-2423076D01*
X-362120Y-2424600D01*
X-362204Y-2424684D01*
X-362204Y-2604515D01*
X-362120Y-2604599D01*
X-362374Y-2606123D01*
X-363136Y-2607647D01*
X-364152Y-2608663D01*
X-365676Y-2609425D01*
X-367200Y-2609679D01*
X-367284Y-2609595D01*
X-547115Y-2609595D01*
G37*
G36*
X265600Y-1568279D02*
G01*
X264076Y-1568025D01*
X262552Y-1567263D01*
X261536Y-1566247D01*
X260774Y-1564723D01*
X260520Y-1563199D01*
X260604Y-1563115D01*
X260604Y-1383284D01*
X260520Y-1383200D01*
X260774Y-1381676D01*
X261536Y-1380152D01*
X262552Y-1379136D01*
X264076Y-1378374D01*
X265600Y-1378120D01*
X265684Y-1378204D01*
X445515Y-1378204D01*
X445599Y-1378120D01*
X447123Y-1378374D01*
X448647Y-1379136D01*
X449663Y-1380152D01*
X450425Y-1381676D01*
X450679Y-1383200D01*
X450595Y-1383284D01*
X450595Y-1563115D01*
X450679Y-1563199D01*
X450425Y-1564723D01*
X449663Y-1566247D01*
X448647Y-1567263D01*
X447123Y-1568025D01*
X445599Y-1568279D01*
X445515Y-1568195D01*
X265684Y-1568195D01*
G37*
G36*
X-547199Y-2863679D02*
G01*
X-548723Y-2863425D01*
X-550247Y-2862663D01*
X-551263Y-2861647D01*
X-552025Y-2860123D01*
X-552279Y-2858599D01*
X-552195Y-2858515D01*
X-552195Y-2678684D01*
X-552279Y-2678600D01*
X-552025Y-2677076D01*
X-551263Y-2675552D01*
X-550247Y-2674536D01*
X-548723Y-2673774D01*
X-547199Y-2673520D01*
X-547115Y-2673604D01*
X-367284Y-2673604D01*
X-367200Y-2673520D01*
X-365676Y-2673774D01*
X-364152Y-2674536D01*
X-363136Y-2675552D01*
X-362374Y-2677076D01*
X-362120Y-2678600D01*
X-362204Y-2678684D01*
X-362204Y-2858515D01*
X-362120Y-2858599D01*
X-362374Y-2860123D01*
X-363136Y-2861647D01*
X-364152Y-2862663D01*
X-365676Y-2863425D01*
X-367200Y-2863679D01*
X-367284Y-2863595D01*
X-547115Y-2863595D01*
G37*
G36*
X-547199Y-2355679D02*
G01*
X-548723Y-2355425D01*
X-550247Y-2354663D01*
X-551263Y-2353647D01*
X-552025Y-2352123D01*
X-552279Y-2350599D01*
X-552195Y-2350515D01*
X-552195Y-2170684D01*
X-552279Y-2170600D01*
X-552025Y-2169076D01*
X-551263Y-2167552D01*
X-550247Y-2166536D01*
X-548723Y-2165774D01*
X-547199Y-2165520D01*
X-547115Y-2165604D01*
X-367284Y-2165604D01*
X-367200Y-2165520D01*
X-365676Y-2165774D01*
X-364152Y-2166536D01*
X-363136Y-2167552D01*
X-362374Y-2169076D01*
X-362120Y-2170600D01*
X-362204Y-2170684D01*
X-362204Y-2350515D01*
X-362120Y-2350599D01*
X-362374Y-2352123D01*
X-363136Y-2353647D01*
X-364152Y-2354663D01*
X-365676Y-2355425D01*
X-367200Y-2355679D01*
X-367284Y-2355595D01*
X-547115Y-2355595D01*
G37*
G36*
X87800Y1352720D02*
G01*
X86276Y1352974D01*
X84752Y1353736D01*
X83736Y1354752D01*
X82974Y1356276D01*
X82720Y1357800D01*
X82804Y1357884D01*
X82804Y1537715D01*
X82720Y1537799D01*
X82974Y1539323D01*
X83736Y1540847D01*
X84752Y1541863D01*
X86276Y1542625D01*
X87800Y1542879D01*
X87884Y1542795D01*
X267715Y1542795D01*
X267799Y1542879D01*
X269323Y1542625D01*
X270847Y1541863D01*
X271863Y1540847D01*
X272625Y1539323D01*
X272879Y1537799D01*
X272795Y1537715D01*
X272795Y1357884D01*
X272879Y1357800D01*
X272625Y1356276D01*
X271863Y1354752D01*
X270847Y1353736D01*
X269323Y1352974D01*
X267799Y1352720D01*
X267715Y1352804D01*
X87884Y1352804D01*
G37*
G36*
X341800Y1352720D02*
G01*
X340276Y1352974D01*
X338752Y1353736D01*
X337736Y1354752D01*
X336974Y1356276D01*
X336720Y1357800D01*
X336804Y1357884D01*
X336804Y1537715D01*
X336720Y1537799D01*
X336974Y1539323D01*
X337736Y1540847D01*
X338752Y1541863D01*
X340276Y1542625D01*
X341800Y1542879D01*
X341884Y1542795D01*
X521715Y1542795D01*
X521799Y1542879D01*
X523323Y1542625D01*
X524847Y1541863D01*
X525863Y1540847D01*
X526625Y1539323D01*
X526879Y1537799D01*
X526795Y1537715D01*
X526795Y1357884D01*
X526879Y1357800D01*
X526625Y1356276D01*
X525863Y1354752D01*
X524847Y1353736D01*
X523323Y1352974D01*
X521799Y1352720D01*
X521715Y1352804D01*
X341884Y1352804D01*
G37*
D29*
G01*
X0Y3810000D03*
G01*
X-508000Y3810000D03*
G01*
X0Y-3810000D03*
G01*
X508000Y-3810000D03*
G36*
X291000Y-2939879D02*
G01*
X289476Y-2939625D01*
X287952Y-2938863D01*
X286936Y-2937847D01*
X286174Y-2936323D01*
X285920Y-2934799D01*
X286004Y-2934715D01*
X286004Y-2754884D01*
X285920Y-2754800D01*
X286174Y-2753276D01*
X286936Y-2751752D01*
X287952Y-2750736D01*
X289476Y-2749974D01*
X291000Y-2749720D01*
X291084Y-2749804D01*
X470915Y-2749804D01*
X470999Y-2749720D01*
X472523Y-2749974D01*
X474047Y-2750736D01*
X475063Y-2751752D01*
X475825Y-2753276D01*
X476079Y-2754800D01*
X475995Y-2754884D01*
X475995Y-2934715D01*
X476079Y-2934799D01*
X475825Y-2936323D01*
X475063Y-2937847D01*
X474047Y-2938863D01*
X472523Y-2939625D01*
X470999Y-2939879D01*
X470915Y-2939795D01*
X291084Y-2939795D01*
G37*
G36*
X-533199Y-1182674D02*
G01*
X-534723Y-1182420D01*
X-536247Y-1181658D01*
X-537263Y-1180642D01*
X-538025Y-1179118D01*
X-538279Y-1177594D01*
X-538226Y-1177544D01*
X-538226Y-1057655D01*
X-538279Y-1057605D01*
X-538025Y-1056081D01*
X-537263Y-1054557D01*
X-536247Y-1053541D01*
X-534723Y-1052779D01*
X-533199Y-1052525D01*
X-533145Y-1052576D01*
X-381254Y-1052576D01*
X-381200Y-1052525D01*
X-379676Y-1052779D01*
X-378152Y-1053541D01*
X-377136Y-1054557D01*
X-376374Y-1056081D01*
X-376120Y-1057605D01*
X-376173Y-1057655D01*
X-376173Y-1177544D01*
X-376120Y-1177594D01*
X-376374Y-1179118D01*
X-377136Y-1180642D01*
X-378152Y-1181658D01*
X-379676Y-1182420D01*
X-381200Y-1182674D01*
X-381254Y-1182623D01*
X-533145Y-1182623D01*
G37*
G36*
X-533145Y-982726D02*
G01*
X-533199Y-982675D01*
X-534723Y-982421D01*
X-536247Y-981659D01*
X-537263Y-980643D01*
X-538025Y-979119D01*
X-538279Y-977595D01*
X-538226Y-977645D01*
X-538226Y-857504D01*
X-538279Y-857605D01*
X-538025Y-856081D01*
X-537263Y-854557D01*
X-536247Y-853541D01*
X-534723Y-852779D01*
X-533199Y-852525D01*
X-533145Y-852423D01*
X-381254Y-852423D01*
X-381200Y-852525D01*
X-379676Y-852779D01*
X-378152Y-853541D01*
X-377136Y-854557D01*
X-376374Y-856081D01*
X-376120Y-857605D01*
X-376173Y-857504D01*
X-376173Y-977645D01*
X-376120Y-977595D01*
X-376374Y-979119D01*
X-377136Y-980643D01*
X-378152Y-981659D01*
X-379676Y-982421D01*
X-381200Y-982675D01*
X-381254Y-982726D01*
G37*
G36*
X-533199Y-782675D02*
G01*
X-534723Y-782421D01*
X-536247Y-781659D01*
X-537263Y-780643D01*
X-538025Y-779119D01*
X-538279Y-777595D01*
X-538226Y-777494D01*
X-538226Y-657605D01*
X-538279Y-657605D01*
X-538025Y-656081D01*
X-537263Y-654557D01*
X-536247Y-653542D01*
X-534723Y-652779D01*
X-533199Y-652526D01*
X-381200Y-652526D01*
X-379676Y-652779D01*
X-378152Y-653542D01*
X-377136Y-654557D01*
X-376374Y-656081D01*
X-376120Y-657605D01*
X-376173Y-657605D01*
X-376173Y-777494D01*
X-376120Y-777595D01*
X-376374Y-779119D01*
X-377136Y-780643D01*
X-378152Y-781659D01*
X-379676Y-782421D01*
X-381200Y-782675D01*
X-381254Y-782573D01*
X-533145Y-782573D01*
G37*
G36*
X-533199Y-582676D02*
G01*
X-534723Y-582421D01*
X-536247Y-581660D01*
X-537263Y-580644D01*
X-538025Y-579120D01*
X-538279Y-577595D01*
X-538226Y-577595D01*
X-538226Y-457707D01*
X-538279Y-457606D01*
X-538025Y-456082D01*
X-537263Y-454558D01*
X-536247Y-453542D01*
X-534723Y-452780D01*
X-533199Y-452526D01*
X-533145Y-452628D01*
X-381254Y-452628D01*
X-381200Y-452526D01*
X-379676Y-452780D01*
X-378152Y-453542D01*
X-377136Y-454558D01*
X-376374Y-456082D01*
X-376120Y-457606D01*
X-376173Y-457707D01*
X-376173Y-577595D01*
X-376120Y-577595D01*
X-376374Y-579120D01*
X-377136Y-580644D01*
X-378152Y-581660D01*
X-379676Y-582421D01*
X-381200Y-582676D01*
G37*
G36*
X-533145Y-382778D02*
G01*
X-533199Y-382676D01*
X-534723Y-382422D01*
X-536247Y-381660D01*
X-537263Y-380644D01*
X-538025Y-379120D01*
X-538279Y-377596D01*
X-538226Y-377697D01*
X-538226Y-257555D01*
X-538279Y-257606D01*
X-538025Y-256082D01*
X-537263Y-254558D01*
X-536247Y-253542D01*
X-534723Y-252780D01*
X-533199Y-252526D01*
X-533145Y-252476D01*
X-381254Y-252476D01*
X-381200Y-252526D01*
X-379676Y-252780D01*
X-378152Y-253542D01*
X-377136Y-254558D01*
X-376374Y-256082D01*
X-376120Y-257606D01*
X-376173Y-257555D01*
X-376173Y-377697D01*
X-376120Y-377596D01*
X-376374Y-379120D01*
X-377136Y-380644D01*
X-378152Y-381660D01*
X-379676Y-382422D01*
X-381200Y-382676D01*
X-381254Y-382778D01*
G37*
G36*
X-533199Y-182676D02*
G01*
X-534723Y-182422D01*
X-536247Y-181660D01*
X-537263Y-180644D01*
X-538025Y-179120D01*
X-538279Y-177596D01*
X-538226Y-177545D01*
X-538226Y-57657D01*
X-538279Y-57607D01*
X-538025Y-56083D01*
X-537263Y-54559D01*
X-536247Y-53543D01*
X-534723Y-52781D01*
X-533199Y-52527D01*
X-533145Y-52578D01*
X-381254Y-52578D01*
X-381200Y-52527D01*
X-379676Y-52781D01*
X-378152Y-53543D01*
X-377136Y-54559D01*
X-376374Y-56083D01*
X-376120Y-57607D01*
X-376173Y-57657D01*
X-376173Y-177545D01*
X-376120Y-177596D01*
X-376374Y-179120D01*
X-377136Y-180644D01*
X-378152Y-181660D01*
X-379676Y-182422D01*
X-381200Y-182676D01*
X-381254Y-182626D01*
X-533145Y-182626D01*
G37*
G36*
X-533145Y17271D02*
G01*
X-533199Y17322D01*
X-534723Y17576D01*
X-536247Y18338D01*
X-537263Y19354D01*
X-538025Y20878D01*
X-538279Y22402D01*
X-538226Y22352D01*
X-538226Y142494D01*
X-538279Y142392D01*
X-538025Y143916D01*
X-537263Y145440D01*
X-536247Y146456D01*
X-534723Y147218D01*
X-533199Y147472D01*
X-533145Y147573D01*
X-381254Y147573D01*
X-381200Y147472D01*
X-379676Y147218D01*
X-378152Y146456D01*
X-377136Y145440D01*
X-376374Y143916D01*
X-376120Y142392D01*
X-376173Y142494D01*
X-376173Y22352D01*
X-376120Y22402D01*
X-376374Y20878D01*
X-377136Y19354D01*
X-378152Y18338D01*
X-379676Y17576D01*
X-381200Y17322D01*
X-381254Y17271D01*
G37*
G36*
X-533199Y217322D02*
G01*
X-534723Y217576D01*
X-536247Y218338D01*
X-537263Y219354D01*
X-538025Y220878D01*
X-538279Y222402D01*
X-538226Y222504D01*
X-538226Y342392D01*
X-538279Y342392D01*
X-538025Y343915D01*
X-537263Y345439D01*
X-536247Y346455D01*
X-534723Y347218D01*
X-533199Y347471D01*
X-381200Y347471D01*
X-379676Y347218D01*
X-378152Y346455D01*
X-377136Y345439D01*
X-376374Y343915D01*
X-376120Y342392D01*
X-376173Y342392D01*
X-376173Y222504D01*
X-376120Y222402D01*
X-376374Y220878D01*
X-377136Y219354D01*
X-378152Y218338D01*
X-379676Y217576D01*
X-381200Y217322D01*
X-381254Y217423D01*
X-533145Y217423D01*
G37*
G36*
X-279199Y217322D02*
G01*
X-280723Y217576D01*
X-282247Y218338D01*
X-283263Y219354D01*
X-284025Y220878D01*
X-284279Y222402D01*
X-284226Y222504D01*
X-284226Y342392D01*
X-284279Y342392D01*
X-284025Y343915D01*
X-283263Y345439D01*
X-282247Y346455D01*
X-280723Y347218D01*
X-279199Y347471D01*
X-127200Y347471D01*
X-125676Y347218D01*
X-124152Y346455D01*
X-123136Y345439D01*
X-122374Y343915D01*
X-122120Y342392D01*
X-122173Y342392D01*
X-122173Y222504D01*
X-122120Y222402D01*
X-122374Y220878D01*
X-123136Y219354D01*
X-124152Y218338D01*
X-125676Y217576D01*
X-127200Y217322D01*
X-127254Y217423D01*
X-279145Y217423D01*
G37*
G36*
X-279145Y17271D02*
G01*
X-279199Y17322D01*
X-280723Y17576D01*
X-282247Y18338D01*
X-283263Y19354D01*
X-284025Y20878D01*
X-284279Y22402D01*
X-284226Y22352D01*
X-284226Y142494D01*
X-284279Y142392D01*
X-284025Y143916D01*
X-283263Y145440D01*
X-282247Y146456D01*
X-280723Y147218D01*
X-279199Y147472D01*
X-279145Y147573D01*
X-127254Y147573D01*
X-127200Y147472D01*
X-125676Y147218D01*
X-124152Y146456D01*
X-123136Y145440D01*
X-122374Y143916D01*
X-122120Y142392D01*
X-122173Y142494D01*
X-122173Y22352D01*
X-122120Y22402D01*
X-122374Y20878D01*
X-123136Y19354D01*
X-124152Y18338D01*
X-125676Y17576D01*
X-127200Y17322D01*
X-127254Y17271D01*
G37*
G36*
X-279199Y-182676D02*
G01*
X-280723Y-182422D01*
X-282247Y-181660D01*
X-283263Y-180644D01*
X-284025Y-179120D01*
X-284279Y-177596D01*
X-284226Y-177545D01*
X-284226Y-57657D01*
X-284279Y-57607D01*
X-284025Y-56083D01*
X-283263Y-54559D01*
X-282247Y-53543D01*
X-280723Y-52781D01*
X-279199Y-52527D01*
X-279145Y-52578D01*
X-127254Y-52578D01*
X-127200Y-52527D01*
X-125676Y-52781D01*
X-124152Y-53543D01*
X-123136Y-54559D01*
X-122374Y-56083D01*
X-122120Y-57607D01*
X-122173Y-57657D01*
X-122173Y-177545D01*
X-122120Y-177596D01*
X-122374Y-179120D01*
X-123136Y-180644D01*
X-124152Y-181660D01*
X-125676Y-182422D01*
X-127200Y-182676D01*
X-127254Y-182626D01*
X-279145Y-182626D01*
G37*
G36*
X-279145Y-382778D02*
G01*
X-279199Y-382676D01*
X-280723Y-382422D01*
X-282247Y-381660D01*
X-283263Y-380644D01*
X-284025Y-379120D01*
X-284279Y-377596D01*
X-284226Y-377697D01*
X-284226Y-257555D01*
X-284279Y-257606D01*
X-284025Y-256082D01*
X-283263Y-254558D01*
X-282247Y-253542D01*
X-280723Y-252780D01*
X-279199Y-252526D01*
X-279145Y-252476D01*
X-127254Y-252476D01*
X-127200Y-252526D01*
X-125676Y-252780D01*
X-124152Y-253542D01*
X-123136Y-254558D01*
X-122374Y-256082D01*
X-122120Y-257606D01*
X-122173Y-257555D01*
X-122173Y-377697D01*
X-122120Y-377596D01*
X-122374Y-379120D01*
X-123136Y-380644D01*
X-124152Y-381660D01*
X-125676Y-382422D01*
X-127200Y-382676D01*
X-127254Y-382778D01*
G37*
G36*
X-279199Y-582676D02*
G01*
X-280723Y-582421D01*
X-282247Y-581660D01*
X-283263Y-580644D01*
X-284025Y-579120D01*
X-284279Y-577595D01*
X-284226Y-577595D01*
X-284226Y-457707D01*
X-284279Y-457606D01*
X-284025Y-456082D01*
X-283263Y-454558D01*
X-282247Y-453542D01*
X-280723Y-452780D01*
X-279199Y-452526D01*
X-279145Y-452628D01*
X-127254Y-452628D01*
X-127200Y-452526D01*
X-125676Y-452780D01*
X-124152Y-453542D01*
X-123136Y-454558D01*
X-122374Y-456082D01*
X-122120Y-457606D01*
X-122173Y-457707D01*
X-122173Y-577595D01*
X-122120Y-577595D01*
X-122374Y-579120D01*
X-123136Y-580644D01*
X-124152Y-581660D01*
X-125676Y-582421D01*
X-127200Y-582676D01*
G37*
G36*
X-279199Y-782675D02*
G01*
X-280723Y-782421D01*
X-282247Y-781659D01*
X-283263Y-780643D01*
X-284025Y-779119D01*
X-284279Y-777595D01*
X-284226Y-777494D01*
X-284226Y-657605D01*
X-284279Y-657605D01*
X-284025Y-656081D01*
X-283263Y-654557D01*
X-282247Y-653542D01*
X-280723Y-652779D01*
X-279199Y-652526D01*
X-127200Y-652526D01*
X-125676Y-652779D01*
X-124152Y-653542D01*
X-123136Y-654557D01*
X-122374Y-656081D01*
X-122120Y-657605D01*
X-122173Y-657605D01*
X-122173Y-777494D01*
X-122120Y-777595D01*
X-122374Y-779119D01*
X-123136Y-780643D01*
X-124152Y-781659D01*
X-125676Y-782421D01*
X-127200Y-782675D01*
X-127254Y-782573D01*
X-279145Y-782573D01*
G37*
G36*
X-279145Y-982726D02*
G01*
X-279199Y-982675D01*
X-280723Y-982421D01*
X-282247Y-981659D01*
X-283263Y-980643D01*
X-284025Y-979119D01*
X-284279Y-977595D01*
X-284226Y-977645D01*
X-284226Y-857504D01*
X-284279Y-857605D01*
X-284025Y-856081D01*
X-283263Y-854557D01*
X-282247Y-853541D01*
X-280723Y-852779D01*
X-279199Y-852525D01*
X-279145Y-852423D01*
X-127254Y-852423D01*
X-127200Y-852525D01*
X-125676Y-852779D01*
X-124152Y-853541D01*
X-123136Y-854557D01*
X-122374Y-856081D01*
X-122120Y-857605D01*
X-122173Y-857504D01*
X-122173Y-977645D01*
X-122120Y-977595D01*
X-122374Y-979119D01*
X-123136Y-980643D01*
X-124152Y-981659D01*
X-125676Y-982421D01*
X-127200Y-982675D01*
X-127254Y-982726D01*
G37*
G36*
X-279199Y-1182674D02*
G01*
X-280723Y-1182420D01*
X-282247Y-1181658D01*
X-283263Y-1180642D01*
X-284025Y-1179118D01*
X-284279Y-1177594D01*
X-284226Y-1177544D01*
X-284226Y-1057655D01*
X-284279Y-1057605D01*
X-284025Y-1056081D01*
X-283263Y-1054557D01*
X-282247Y-1053541D01*
X-280723Y-1052779D01*
X-279199Y-1052525D01*
X-279145Y-1052576D01*
X-127254Y-1052576D01*
X-127200Y-1052525D01*
X-125676Y-1052779D01*
X-124152Y-1053541D01*
X-123136Y-1054557D01*
X-122374Y-1056081D01*
X-122120Y-1057605D01*
X-122173Y-1057655D01*
X-122173Y-1177544D01*
X-122120Y-1177594D01*
X-122374Y-1179118D01*
X-123136Y-1180642D01*
X-124152Y-1181658D01*
X-125676Y-1182420D01*
X-127200Y-1182674D01*
X-127254Y-1182623D01*
X-279145Y-1182623D01*
G37*
D30*
G01*
X203200Y-1117600D03*
G01*
X203200Y-917600D03*
G01*
X203200Y-717600D03*
G01*
X203200Y-517601D03*
G01*
X203200Y-317601D03*
G01*
X203200Y-117602D03*
G01*
X203200Y82397D03*
G01*
X203200Y282397D03*
M02*
