G04 Layer: TopSolderMaskLayer*
G04 EasyEDA v6.5.5, 2022-05-12 14:51:26*
G04 adf74ae4be104b6fa4aa75e98640d5de,defc1f93b7bc4f92b0c06f3051cee8fa,10*
G04 Gerber Generator version 0.2*
G04 Scale: 100 percent, Rotated: No, Reflected: No *
G04 Dimensions in millimeters *
G04 leading zeros omitted , absolute positions ,4 integer and 5 decimal *
%FSLAX45Y45*%
%MOMM*%

%ADD27C,1.9016*%
%ADD29C,2.5016*%
%ADD30C,1.5016*%

%LPD*%
D27*
X-127000Y-2844800D02*
G01*
X-127000Y-2844800D01*
X127000Y-2844800D02*
G01*
X127000Y-2844800D01*
G36*
X-547199Y-2609679D02*
G01*
X-548723Y-2609425D01*
X-550247Y-2608663D01*
X-551263Y-2607647D01*
X-552025Y-2606123D01*
X-552279Y-2604599D01*
X-552195Y-2604515D01*
X-552195Y-2424684D01*
X-552279Y-2424600D01*
X-552025Y-2423076D01*
X-551263Y-2421552D01*
X-550247Y-2420536D01*
X-548723Y-2419774D01*
X-547199Y-2419520D01*
X-547115Y-2419604D01*
X-367284Y-2419604D01*
X-367200Y-2419520D01*
X-365676Y-2419774D01*
X-364152Y-2420536D01*
X-363136Y-2421552D01*
X-362374Y-2423076D01*
X-362120Y-2424600D01*
X-362204Y-2424684D01*
X-362204Y-2604515D01*
X-362120Y-2604599D01*
X-362374Y-2606123D01*
X-363136Y-2607647D01*
X-364152Y-2608663D01*
X-365676Y-2609425D01*
X-367200Y-2609679D01*
X-367284Y-2609595D01*
X-547115Y-2609595D01*
G37*
G36*
X265600Y-1568279D02*
G01*
X264076Y-1568025D01*
X262552Y-1567263D01*
X261536Y-1566247D01*
X260774Y-1564723D01*
X260520Y-1563199D01*
X260604Y-1563115D01*
X260604Y-1383284D01*
X260520Y-1383200D01*
X260774Y-1381676D01*
X261536Y-1380152D01*
X262552Y-1379136D01*
X264076Y-1378374D01*
X265600Y-1378120D01*
X265684Y-1378204D01*
X445515Y-1378204D01*
X445599Y-1378120D01*
X447123Y-1378374D01*
X448647Y-1379136D01*
X449663Y-1380152D01*
X450425Y-1381676D01*
X450679Y-1383200D01*
X450595Y-1383284D01*
X450595Y-1563115D01*
X450679Y-1563199D01*
X450425Y-1564723D01*
X449663Y-1566247D01*
X448647Y-1567263D01*
X447123Y-1568025D01*
X445599Y-1568279D01*
X445515Y-1568195D01*
X265684Y-1568195D01*
G37*
G36*
X-547199Y-2863679D02*
G01*
X-548723Y-2863425D01*
X-550247Y-2862663D01*
X-551263Y-2861647D01*
X-552025Y-2860123D01*
X-552279Y-2858599D01*
X-552195Y-2858515D01*
X-552195Y-2678684D01*
X-552279Y-2678600D01*
X-552025Y-2677076D01*
X-551263Y-2675552D01*
X-550247Y-2674536D01*
X-548723Y-2673774D01*
X-547199Y-2673520D01*
X-547115Y-2673604D01*
X-367284Y-2673604D01*
X-367200Y-2673520D01*
X-365676Y-2673774D01*
X-364152Y-2674536D01*
X-363136Y-2675552D01*
X-362374Y-2677076D01*
X-362120Y-2678600D01*
X-362204Y-2678684D01*
X-362204Y-2858515D01*
X-362120Y-2858599D01*
X-362374Y-2860123D01*
X-363136Y-2861647D01*
X-364152Y-2862663D01*
X-365676Y-2863425D01*
X-367200Y-2863679D01*
X-367284Y-2863595D01*
X-547115Y-2863595D01*
G37*
G36*
X-547199Y-2355679D02*
G01*
X-548723Y-2355425D01*
X-550247Y-2354663D01*
X-551263Y-2353647D01*
X-552025Y-2352123D01*
X-552279Y-2350599D01*
X-552195Y-2350515D01*
X-552195Y-2170684D01*
X-552279Y-2170600D01*
X-552025Y-2169076D01*
X-551263Y-2167552D01*
X-550247Y-2166536D01*
X-548723Y-2165774D01*
X-547199Y-2165520D01*
X-547115Y-2165604D01*
X-367284Y-2165604D01*
X-367200Y-2165520D01*
X-365676Y-2165774D01*
X-364152Y-2166536D01*
X-363136Y-2167552D01*
X-362374Y-2169076D01*
X-362120Y-2170600D01*
X-362204Y-2170684D01*
X-362204Y-2350515D01*
X-362120Y-2350599D01*
X-362374Y-2352123D01*
X-363136Y-2353647D01*
X-364152Y-2354663D01*
X-365676Y-2355425D01*
X-367200Y-2355679D01*
X-367284Y-2355595D01*
X-547115Y-2355595D01*
G37*
G36*
X87800Y1352720D02*
G01*
X86276Y1352974D01*
X84752Y1353736D01*
X83736Y1354752D01*
X82974Y1356276D01*
X82720Y1357800D01*
X82804Y1357884D01*
X82804Y1537715D01*
X82720Y1537799D01*
X82974Y1539323D01*
X83736Y1540847D01*
X84752Y1541863D01*
X86276Y1542625D01*
X87800Y1542879D01*
X87884Y1542795D01*
X267715Y1542795D01*
X267799Y1542879D01*
X269323Y1542625D01*
X270847Y1541863D01*
X271863Y1540847D01*
X272625Y1539323D01*
X272879Y1537799D01*
X272795Y1537715D01*
X272795Y1357884D01*
X272879Y1357800D01*
X272625Y1356276D01*
X271863Y1354752D01*
X270847Y1353736D01*
X269323Y1352974D01*
X267799Y1352720D01*
X267715Y1352804D01*
X87884Y1352804D01*
G37*
G36*
X341800Y1352720D02*
G01*
X340276Y1352974D01*
X338752Y1353736D01*
X337736Y1354752D01*
X336974Y1356276D01*
X336720Y1357800D01*
X336804Y1357884D01*
X336804Y1537715D01*
X336720Y1537799D01*
X336974Y1539323D01*
X337736Y1540847D01*
X338752Y1541863D01*
X340276Y1542625D01*
X341800Y1542879D01*
X341884Y1542795D01*
X521715Y1542795D01*
X521799Y1542879D01*
X523323Y1542625D01*
X524847Y1541863D01*
X525863Y1540847D01*
X526625Y1539323D01*
X526879Y1537799D01*
X526795Y1537715D01*
X526795Y1357884D01*
X526879Y1357800D01*
X526625Y1356276D01*
X525863Y1354752D01*
X524847Y1353736D01*
X523323Y1352974D01*
X521799Y1352720D01*
X521715Y1352804D01*
X341884Y1352804D01*
G37*
D29*
G01*
X0Y3810000D03*
G01*
X-508000Y3810000D03*
G01*
X0Y-3810000D03*
G01*
X508000Y-3810000D03*
G36*
X291000Y-2939879D02*
G01*
X289476Y-2939625D01*
X287952Y-2938863D01*
X286936Y-2937847D01*
X286174Y-2936323D01*
X285920Y-2934799D01*
X286004Y-2934715D01*
X286004Y-2754884D01*
X285920Y-2754800D01*
X286174Y-2753276D01*
X286936Y-2751752D01*
X287952Y-2750736D01*
X289476Y-2749974D01*
X291000Y-2749720D01*
X291084Y-2749804D01*
X470915Y-2749804D01*
X470999Y-2749720D01*
X472523Y-2749974D01*
X474047Y-2750736D01*
X475063Y-2751752D01*
X475825Y-2753276D01*
X476079Y-2754800D01*
X475995Y-2754884D01*
X475995Y-2934715D01*
X476079Y-2934799D01*
X475825Y-2936323D01*
X475063Y-2937847D01*
X474047Y-2938863D01*
X472523Y-2939625D01*
X470999Y-2939879D01*
X470915Y-2939795D01*
X291084Y-2939795D01*
G37*
D30*
G01*
X203200Y-1117600D03*
G01*
X203200Y-917600D03*
G01*
X203200Y-717600D03*
G01*
X203200Y-517601D03*
G01*
X203200Y-317601D03*
G01*
X203200Y-117602D03*
G01*
X203200Y82397D03*
G01*
X203200Y282397D03*
M02*
