G04 Layer: BottomLayer*
G04 EasyEDA v6.5.5, 2022-05-12 14:51:26*
G04 adf74ae4be104b6fa4aa75e98640d5de,defc1f93b7bc4f92b0c06f3051cee8fa,10*
G04 Gerber Generator version 0.2*
G04 Scale: 100 percent, Rotated: No, Reflected: No *
G04 Dimensions in millimeters *
G04 leading zeros omitted , absolute positions ,4 integer and 5 decimal *
%FSLAX45Y45*%
%MOMM*%

%ADD11R,1.8000X1.8000*%
%ADD12C,2.4000*%
%ADD13C,1.4000*%
%ADD14C,1.8000*%
%ADD15C,0.5000*%
%ADD16C,0.5740*%
%ADD19R,1.7010X1.2075*%

%LPD*%
G36*
X-763930Y-4374083D02*
G01*
X-767842Y-4373321D01*
X-771093Y-4371086D01*
X-773328Y-4367834D01*
X-774090Y-4363923D01*
X-774090Y4363923D01*
X-773328Y4367834D01*
X-771093Y4371086D01*
X-767842Y4373321D01*
X-763930Y4374083D01*
X763930Y4374083D01*
X767842Y4373321D01*
X771093Y4371086D01*
X773328Y4367834D01*
X774090Y4363923D01*
X774090Y-4363923D01*
X773328Y-4367834D01*
X771093Y-4371086D01*
X767842Y-4373321D01*
X763930Y-4374083D01*
G37*

%LPC*%
G36*
X0Y-3980484D02*
G01*
X17830Y-3979570D01*
X35458Y-3976776D01*
X52679Y-3972153D01*
X69342Y-3965752D01*
X85242Y-3957624D01*
X100228Y-3947922D01*
X114096Y-3936695D01*
X126695Y-3924096D01*
X137922Y-3910228D01*
X147675Y-3895242D01*
X155752Y-3879342D01*
X162153Y-3862679D01*
X166776Y-3845458D01*
X169570Y-3827830D01*
X170484Y-3810000D01*
X169570Y-3792169D01*
X166776Y-3774541D01*
X163118Y-3760876D01*
X162814Y-3757371D01*
X163677Y-3753967D01*
X165709Y-3751072D01*
X182270Y-3734409D01*
X187858Y-3727704D01*
X189280Y-3725672D01*
X193852Y-3718102D01*
X198323Y-3707739D01*
X199085Y-3705453D01*
X201218Y-3696868D01*
X201625Y-3694429D01*
X202438Y-3685641D01*
X202488Y-2968548D01*
X203047Y-2965246D01*
X204673Y-2962249D01*
X207162Y-2960014D01*
X209600Y-2958439D01*
X221996Y-2948279D01*
X225653Y-2944520D01*
X229209Y-2942183D01*
X233375Y-2941472D01*
X237490Y-2942539D01*
X240792Y-2945180D01*
X242773Y-2948990D01*
X243586Y-2952038D01*
X247294Y-2960014D01*
X252323Y-2967228D01*
X258571Y-2973476D01*
X265785Y-2978505D01*
X273761Y-2982214D01*
X282244Y-2984500D01*
X291439Y-2985312D01*
X329641Y-2985312D01*
X329641Y-2896158D01*
X271780Y-2896158D01*
X268020Y-2895447D01*
X264820Y-2893415D01*
X262585Y-2890316D01*
X261620Y-2886608D01*
X262128Y-2882849D01*
X262890Y-2880512D01*
X266039Y-2864764D01*
X267411Y-2848813D01*
X266954Y-2832760D01*
X264668Y-2816910D01*
X261874Y-2806192D01*
X261620Y-2802483D01*
X262686Y-2798978D01*
X264922Y-2796032D01*
X268071Y-2794101D01*
X271729Y-2793441D01*
X329641Y-2793441D01*
X329641Y-2704287D01*
X291439Y-2704287D01*
X282244Y-2705100D01*
X273761Y-2707386D01*
X265785Y-2711094D01*
X258571Y-2716123D01*
X252323Y-2722372D01*
X247294Y-2729585D01*
X243586Y-2737510D01*
X242773Y-2740507D01*
X240893Y-2744216D01*
X237744Y-2746857D01*
X233781Y-2748026D01*
X229666Y-2747467D01*
X226110Y-2745384D01*
X215950Y-2736037D01*
X202946Y-2726588D01*
X188976Y-2718714D01*
X174193Y-2712466D01*
X158800Y-2707944D01*
X143002Y-2705201D01*
X127000Y-2704287D01*
X110998Y-2705201D01*
X95199Y-2707944D01*
X79806Y-2712466D01*
X65024Y-2718714D01*
X51054Y-2726588D01*
X38049Y-2736037D01*
X26263Y-2746857D01*
X15747Y-2758998D01*
X8382Y-2769768D01*
X5588Y-2772511D01*
X1981Y-2773984D01*
X-1981Y-2773984D01*
X-5588Y-2772511D01*
X-8382Y-2769768D01*
X-15747Y-2758998D01*
X-26263Y-2746857D01*
X-38049Y-2736037D01*
X-47294Y-2729331D01*
X-49530Y-2727096D01*
X-51003Y-2724251D01*
X-51511Y-2721102D01*
X-51511Y-2353868D01*
X-50546Y-2349601D01*
X-47853Y-2346096D01*
X-43942Y-2344064D01*
X-42316Y-2343607D01*
X-34340Y-2339898D01*
X-27178Y-2334869D01*
X-20929Y-2328621D01*
X-15900Y-2321407D01*
X-12192Y-2313482D01*
X-9906Y-2304948D01*
X-9093Y-2295753D01*
X-9093Y-2123846D01*
X-9906Y-2114651D01*
X-12192Y-2106117D01*
X-15900Y-2098141D01*
X-20929Y-2090978D01*
X-27178Y-2084730D01*
X-34340Y-2079701D01*
X-42316Y-2075992D01*
X-50800Y-2073706D01*
X-54711Y-2071674D01*
X-57404Y-2068169D01*
X-58369Y-2063902D01*
X-58369Y-1949907D01*
X-57505Y-1945843D01*
X-55067Y-1942439D01*
X-51460Y-1940306D01*
X-47294Y-1939798D01*
X-41554Y-1940306D01*
X-11226Y-1940306D01*
X-11226Y-1852930D01*
X-48209Y-1852930D01*
X-52069Y-1852168D01*
X-55372Y-1849983D01*
X-57556Y-1846681D01*
X-58369Y-1842770D01*
X-58369Y-1764030D01*
X-57556Y-1760118D01*
X-55372Y-1756816D01*
X-52069Y-1754632D01*
X-48209Y-1753870D01*
X-11226Y-1753870D01*
X-11226Y-1666493D01*
X-41554Y-1666493D01*
X-47294Y-1667002D01*
X-51460Y-1666493D01*
X-55067Y-1664360D01*
X-57505Y-1660956D01*
X-58369Y-1656892D01*
X-58419Y-1535379D01*
X-59232Y-1526590D01*
X-59639Y-1524152D01*
X-61772Y-1515567D01*
X-62534Y-1513281D01*
X-67005Y-1502918D01*
X-71577Y-1495348D01*
X-72999Y-1493316D01*
X-78587Y-1486560D01*
X-84886Y-1480210D01*
X-87020Y-1476959D01*
X-87782Y-1473098D01*
X-87782Y-1388567D01*
X-88595Y-1379372D01*
X-90881Y-1370888D01*
X-94589Y-1362913D01*
X-99618Y-1355699D01*
X-105867Y-1349502D01*
X-113080Y-1344422D01*
X-117297Y-1342440D01*
X-120396Y-1340205D01*
X-122428Y-1337005D01*
X-123189Y-1333246D01*
X-123189Y-1236370D01*
X-122224Y-1232052D01*
X-119532Y-1228598D01*
X-115620Y-1226566D01*
X-109931Y-1225042D01*
X-101955Y-1221282D01*
X-94742Y-1216253D01*
X-88544Y-1210056D01*
X-83515Y-1202842D01*
X-79756Y-1194866D01*
X-77520Y-1186383D01*
X-76708Y-1177137D01*
X-76708Y-1152906D01*
X-75895Y-1148994D01*
X-73710Y-1145692D01*
X-42062Y-1114044D01*
X-38760Y-1111808D01*
X-34848Y-1111046D01*
X-30988Y-1111808D01*
X-27686Y-1114044D01*
X-25501Y-1117346D01*
X-24688Y-1121206D01*
X-24638Y-1221841D01*
X-23825Y-1230630D01*
X-23418Y-1233068D01*
X-21285Y-1241653D01*
X-20523Y-1243939D01*
X-16052Y-1254302D01*
X-11480Y-1261872D01*
X-10058Y-1263904D01*
X-4419Y-1270711D01*
X18592Y-1293774D01*
X20777Y-1297076D01*
X21590Y-1300988D01*
X21590Y-1333246D01*
X20828Y-1337005D01*
X18796Y-1340205D01*
X15697Y-1342440D01*
X11480Y-1344422D01*
X4267Y-1349502D01*
X-1981Y-1355699D01*
X-7010Y-1362913D01*
X-10718Y-1370888D01*
X-13004Y-1379372D01*
X-13817Y-1388567D01*
X-13817Y-1557782D01*
X-13004Y-1567027D01*
X-10718Y-1575511D01*
X-7010Y-1583486D01*
X-1981Y-1590700D01*
X4267Y-1596898D01*
X11480Y-1601978D01*
X19456Y-1605686D01*
X27940Y-1607972D01*
X37134Y-1608734D01*
X157022Y-1608734D01*
X166217Y-1607972D01*
X174701Y-1605686D01*
X182676Y-1601978D01*
X189890Y-1596898D01*
X196138Y-1590700D01*
X203403Y-1580388D01*
X206603Y-1578305D01*
X210362Y-1577594D01*
X214121Y-1578305D01*
X217322Y-1580388D01*
X219557Y-1583486D01*
X221894Y-1588414D01*
X226923Y-1595628D01*
X233171Y-1601876D01*
X240385Y-1606905D01*
X248361Y-1610614D01*
X256844Y-1612900D01*
X266039Y-1613712D01*
X445160Y-1613712D01*
X454355Y-1612900D01*
X462838Y-1610614D01*
X470814Y-1606905D01*
X478028Y-1601876D01*
X484276Y-1595628D01*
X489305Y-1588414D01*
X493014Y-1580438D01*
X495300Y-1571955D01*
X496112Y-1562760D01*
X496112Y-1383639D01*
X495300Y-1374444D01*
X493014Y-1365961D01*
X489305Y-1357985D01*
X484276Y-1350772D01*
X478028Y-1344523D01*
X470814Y-1339494D01*
X462838Y-1335786D01*
X454355Y-1333500D01*
X445160Y-1332687D01*
X418490Y-1332687D01*
X414578Y-1331925D01*
X411276Y-1329690D01*
X409092Y-1326438D01*
X408330Y-1322527D01*
X408330Y-1251204D01*
X321665Y-1251204D01*
X321665Y-1274622D01*
X322427Y-1283817D01*
X324713Y-1292301D01*
X328422Y-1300276D01*
X333502Y-1307490D01*
X343306Y-1317345D01*
X344678Y-1321358D01*
X344271Y-1325575D01*
X342188Y-1329283D01*
X338734Y-1331823D01*
X334568Y-1332687D01*
X266039Y-1332687D01*
X256844Y-1333500D01*
X248361Y-1335786D01*
X240385Y-1339494D01*
X233171Y-1344523D01*
X226923Y-1350772D01*
X221894Y-1357985D01*
X219557Y-1362913D01*
X217322Y-1366012D01*
X214121Y-1368094D01*
X210362Y-1368806D01*
X206603Y-1368094D01*
X203403Y-1366012D01*
X196138Y-1355699D01*
X189890Y-1349502D01*
X182676Y-1344422D01*
X178460Y-1342440D01*
X175361Y-1340205D01*
X173329Y-1337005D01*
X172567Y-1333246D01*
X172516Y-1262837D01*
X171704Y-1254252D01*
X169164Y-1243025D01*
X168402Y-1240739D01*
X165049Y-1232662D01*
X163068Y-1228902D01*
X162153Y-1226566D01*
X161848Y-1224127D01*
X161848Y-1158951D01*
X136448Y-1158951D01*
X132588Y-1158189D01*
X129285Y-1155954D01*
X127101Y-1152702D01*
X126288Y-1148791D01*
X126288Y-1086408D01*
X127101Y-1082497D01*
X129285Y-1079246D01*
X132588Y-1077010D01*
X136448Y-1076248D01*
X161848Y-1076248D01*
X161848Y-1044295D01*
X162864Y-1039876D01*
X165658Y-1036370D01*
X169672Y-1034389D01*
X174193Y-1034338D01*
X184708Y-1036675D01*
X199491Y-1037996D01*
X214325Y-1037590D01*
X228955Y-1035303D01*
X231597Y-1034542D01*
X235305Y-1034186D01*
X238912Y-1035202D01*
X241909Y-1037488D01*
X243840Y-1040637D01*
X244551Y-1044295D01*
X244551Y-1076248D01*
X316230Y-1076248D01*
X315569Y-1074064D01*
X309372Y-1060602D01*
X301548Y-1048003D01*
X292252Y-1036421D01*
X281076Y-1025702D01*
X278536Y-1022959D01*
X277215Y-1019454D01*
X277215Y-1015746D01*
X278536Y-1012240D01*
X295503Y-995426D01*
X298246Y-994156D01*
X301244Y-993698D01*
X316992Y-993800D01*
X320751Y-994511D01*
X323951Y-996543D01*
X326186Y-999642D01*
X328422Y-1004519D01*
X333502Y-1011732D01*
X339699Y-1017981D01*
X346913Y-1023010D01*
X354888Y-1026718D01*
X363372Y-1029004D01*
X372618Y-1029817D01*
X541782Y-1029817D01*
X551027Y-1029004D01*
X559511Y-1026718D01*
X567486Y-1023010D01*
X574700Y-1017981D01*
X580898Y-1011732D01*
X585978Y-1004519D01*
X589686Y-996543D01*
X591972Y-988060D01*
X592734Y-978865D01*
X592734Y-858977D01*
X591972Y-849782D01*
X589686Y-841298D01*
X585978Y-833323D01*
X580898Y-826109D01*
X574700Y-819861D01*
X567486Y-814832D01*
X559511Y-811123D01*
X551027Y-808837D01*
X541782Y-808024D01*
X372618Y-808024D01*
X363372Y-808837D01*
X354888Y-811123D01*
X346913Y-814832D01*
X339699Y-819861D01*
X333502Y-826109D01*
X328422Y-833323D01*
X326745Y-836879D01*
X324510Y-840028D01*
X321259Y-842060D01*
X317500Y-842771D01*
X302107Y-842670D01*
X297738Y-841705D01*
X294233Y-838911D01*
X292252Y-836421D01*
X281076Y-825703D01*
X278536Y-822960D01*
X277215Y-819454D01*
X277215Y-815746D01*
X278536Y-812241D01*
X292252Y-798779D01*
X301548Y-787196D01*
X309372Y-774598D01*
X315569Y-761136D01*
X320040Y-746963D01*
X322783Y-732383D01*
X323697Y-717600D01*
X323392Y-712825D01*
X323850Y-709066D01*
X325678Y-705764D01*
X328574Y-703326D01*
X332181Y-702157D01*
X335940Y-702310D01*
X339394Y-703884D01*
X346913Y-709168D01*
X354888Y-712876D01*
X363372Y-715162D01*
X372618Y-715975D01*
X408330Y-715975D01*
X408330Y-641604D01*
X321665Y-641604D01*
X321665Y-644702D01*
X320700Y-648970D01*
X318109Y-652424D01*
X314248Y-654507D01*
X309930Y-654761D01*
X305866Y-653186D01*
X302818Y-650087D01*
X301548Y-647954D01*
X292252Y-636422D01*
X281076Y-625703D01*
X278587Y-622960D01*
X277215Y-619455D01*
X277215Y-615746D01*
X278587Y-612241D01*
X281584Y-609092D01*
X292252Y-598779D01*
X301548Y-587197D01*
X309422Y-574446D01*
X311658Y-571347D01*
X314909Y-569264D01*
X318668Y-568553D01*
X408330Y-568553D01*
X408330Y-494182D01*
X372618Y-494182D01*
X363372Y-494995D01*
X354888Y-497281D01*
X346913Y-500989D01*
X339598Y-506171D01*
X335889Y-508508D01*
X331571Y-509117D01*
X327406Y-507796D01*
X324154Y-504850D01*
X322427Y-500837D01*
X320040Y-488188D01*
X315569Y-474065D01*
X309372Y-460603D01*
X301548Y-447954D01*
X292252Y-436422D01*
X281076Y-425704D01*
X278587Y-422960D01*
X277215Y-419455D01*
X277215Y-415747D01*
X278587Y-412242D01*
X281584Y-409092D01*
X292252Y-398780D01*
X293725Y-396900D01*
X297281Y-394106D01*
X301650Y-393090D01*
X321868Y-393090D01*
X325069Y-393649D01*
X327964Y-395122D01*
X330200Y-397459D01*
X333502Y-402132D01*
X339699Y-408381D01*
X346913Y-413410D01*
X354888Y-417118D01*
X363372Y-419404D01*
X372618Y-420217D01*
X541782Y-420217D01*
X551027Y-419404D01*
X559511Y-417118D01*
X567486Y-413410D01*
X574700Y-408381D01*
X580898Y-402132D01*
X585978Y-394919D01*
X589686Y-386943D01*
X591972Y-378460D01*
X592734Y-369265D01*
X592734Y-284734D01*
X593547Y-280873D01*
X595731Y-277571D01*
X664819Y-208432D01*
X670458Y-201625D01*
X671880Y-199593D01*
X676452Y-192024D01*
X680923Y-181660D01*
X681685Y-179374D01*
X683818Y-170789D01*
X684225Y-168351D01*
X685038Y-159562D01*
X685038Y1856841D01*
X684225Y1865630D01*
X683818Y1868068D01*
X681685Y1876653D01*
X680923Y1878939D01*
X676452Y1889302D01*
X671880Y1896872D01*
X670458Y1898904D01*
X664819Y1905711D01*
X534111Y2036419D01*
X527304Y2042058D01*
X525272Y2043480D01*
X517702Y2048052D01*
X507339Y2052523D01*
X505053Y2053285D01*
X496468Y2055418D01*
X494030Y2055825D01*
X485241Y2056638D01*
X359206Y2056688D01*
X355346Y2057501D01*
X352044Y2059686D01*
X349859Y2062988D01*
X349046Y2066848D01*
X349859Y2070760D01*
X352044Y2074062D01*
X398119Y2120188D01*
X403758Y2126996D01*
X405180Y2129028D01*
X409752Y2136597D01*
X414223Y2146960D01*
X414985Y2149246D01*
X417118Y2157831D01*
X417525Y2160270D01*
X418338Y2169058D01*
X418388Y2235962D01*
X418642Y2238197D01*
X421182Y2249271D01*
X422097Y2261463D01*
X422097Y2406853D01*
X421182Y2419045D01*
X418642Y2430119D01*
X418388Y2432405D01*
X418388Y2504490D01*
X419150Y2508402D01*
X421335Y2511653D01*
X431749Y2522118D01*
X437337Y2528874D01*
X438759Y2530906D01*
X443331Y2538476D01*
X447801Y2548839D01*
X448564Y2551125D01*
X450697Y2559710D01*
X451104Y2562148D01*
X451916Y2570937D01*
X451967Y2603246D01*
X452729Y2607005D01*
X454761Y2610205D01*
X457860Y2612440D01*
X462076Y2614422D01*
X469290Y2619502D01*
X475538Y2625699D01*
X480568Y2632913D01*
X484276Y2640888D01*
X486562Y2649372D01*
X487375Y2658567D01*
X487375Y2827782D01*
X486562Y2837027D01*
X484276Y2845511D01*
X480568Y2853486D01*
X475538Y2860700D01*
X469290Y2866898D01*
X462076Y2871978D01*
X454101Y2875686D01*
X445617Y2877972D01*
X436422Y2878734D01*
X320344Y2878734D01*
X316230Y2879648D01*
X312775Y2882138D01*
X310692Y2885846D01*
X310286Y2890113D01*
X311658Y2894126D01*
X314553Y2897225D01*
X316890Y2898902D01*
X323138Y2905099D01*
X328168Y2912313D01*
X331876Y2920288D01*
X334162Y2928772D01*
X334975Y2937967D01*
X334975Y3107182D01*
X334162Y3116427D01*
X331876Y3124911D01*
X328168Y3132886D01*
X323138Y3140100D01*
X316890Y3146298D01*
X309676Y3151378D01*
X305460Y3153308D01*
X302361Y3155543D01*
X300329Y3158794D01*
X299567Y3162554D01*
X299567Y3238246D01*
X300329Y3242005D01*
X302361Y3245205D01*
X305460Y3247440D01*
X309676Y3249422D01*
X316890Y3254502D01*
X323138Y3260699D01*
X328168Y3267913D01*
X331876Y3275888D01*
X334162Y3284372D01*
X334975Y3293567D01*
X334975Y3462782D01*
X334162Y3472027D01*
X331876Y3480511D01*
X328168Y3488486D01*
X323138Y3495700D01*
X316890Y3501898D01*
X309676Y3506927D01*
X305460Y3508908D01*
X302361Y3511143D01*
X300329Y3514394D01*
X299567Y3518154D01*
X299516Y3558641D01*
X298704Y3567429D01*
X298297Y3569868D01*
X296164Y3578453D01*
X295402Y3580739D01*
X290931Y3591102D01*
X286359Y3598672D01*
X279298Y3607511D01*
X157734Y3729126D01*
X155600Y3732326D01*
X154787Y3736136D01*
X155448Y3739946D01*
X162153Y3757320D01*
X166776Y3774541D01*
X169570Y3792169D01*
X170484Y3810000D01*
X169570Y3827830D01*
X166776Y3845458D01*
X162153Y3862679D01*
X155752Y3879342D01*
X147675Y3895242D01*
X137922Y3910228D01*
X126695Y3924096D01*
X114096Y3936695D01*
X100228Y3947922D01*
X85242Y3957624D01*
X69342Y3965752D01*
X52679Y3972153D01*
X35458Y3976776D01*
X17830Y3979570D01*
X0Y3980484D01*
X-17830Y3979570D01*
X-35458Y3976776D01*
X-52679Y3972153D01*
X-69342Y3965752D01*
X-85242Y3957624D01*
X-100228Y3947922D01*
X-114096Y3936695D01*
X-126695Y3924096D01*
X-137922Y3910228D01*
X-147675Y3895242D01*
X-155752Y3879342D01*
X-162153Y3862679D01*
X-166776Y3845458D01*
X-169570Y3827830D01*
X-170484Y3810000D01*
X-169570Y3792169D01*
X-166776Y3774541D01*
X-162153Y3757320D01*
X-155752Y3740658D01*
X-147675Y3724757D01*
X-137922Y3709771D01*
X-126695Y3695903D01*
X-114096Y3683304D01*
X-100228Y3672078D01*
X-85242Y3662324D01*
X-69342Y3654247D01*
X-52679Y3647846D01*
X-35458Y3643223D01*
X-17830Y3640429D01*
X0Y3639515D01*
X17830Y3640429D01*
X25704Y3641699D01*
X28854Y3641699D01*
X31902Y3640683D01*
X34442Y3638804D01*
X145592Y3527704D01*
X147777Y3524402D01*
X148590Y3520490D01*
X148590Y3518154D01*
X147828Y3514394D01*
X145796Y3511143D01*
X142697Y3508908D01*
X138480Y3506927D01*
X131267Y3501898D01*
X125018Y3495700D01*
X119989Y3488486D01*
X116281Y3480511D01*
X113995Y3472027D01*
X113182Y3462782D01*
X113182Y3324656D01*
X112420Y3320745D01*
X110235Y3317443D01*
X106933Y3315258D01*
X103022Y3314496D01*
X99161Y3315258D01*
X95859Y3317443D01*
X42164Y3371138D01*
X39979Y3374390D01*
X39217Y3378301D01*
X39217Y3462782D01*
X38404Y3472027D01*
X36118Y3480511D01*
X32410Y3488486D01*
X27381Y3495700D01*
X21132Y3501898D01*
X13919Y3506927D01*
X5943Y3510686D01*
X-2540Y3512921D01*
X-11734Y3513734D01*
X-100736Y3513734D01*
X-104648Y3514547D01*
X-107950Y3516731D01*
X-342290Y3751072D01*
X-344271Y3753916D01*
X-345186Y3757371D01*
X-344881Y3760876D01*
X-341223Y3774541D01*
X-338429Y3792169D01*
X-337515Y3810000D01*
X-338429Y3827830D01*
X-341223Y3845458D01*
X-345846Y3862679D01*
X-352247Y3879342D01*
X-360324Y3895242D01*
X-370078Y3910228D01*
X-381304Y3924096D01*
X-393903Y3936695D01*
X-407771Y3947922D01*
X-422757Y3957624D01*
X-438658Y3965752D01*
X-455320Y3972153D01*
X-472541Y3976776D01*
X-490169Y3979570D01*
X-508000Y3980484D01*
X-525830Y3979570D01*
X-543458Y3976776D01*
X-560679Y3972153D01*
X-577342Y3965752D01*
X-593242Y3957624D01*
X-608228Y3947922D01*
X-622096Y3936695D01*
X-634695Y3924096D01*
X-645922Y3910228D01*
X-655675Y3895242D01*
X-663752Y3879342D01*
X-670153Y3862679D01*
X-674776Y3845458D01*
X-677570Y3827830D01*
X-678484Y3810000D01*
X-677570Y3792169D01*
X-674776Y3774541D01*
X-670153Y3757320D01*
X-663752Y3740658D01*
X-655675Y3724757D01*
X-645922Y3709771D01*
X-634695Y3695903D01*
X-622096Y3683304D01*
X-608228Y3672078D01*
X-593242Y3662324D01*
X-577342Y3654247D01*
X-560679Y3647846D01*
X-543458Y3643223D01*
X-525830Y3640429D01*
X-508000Y3639515D01*
X-490169Y3640429D01*
X-472541Y3643223D01*
X-458876Y3646881D01*
X-455371Y3647186D01*
X-451916Y3646271D01*
X-449072Y3644239D01*
X-185521Y3380740D01*
X-183337Y3377437D01*
X-182575Y3373577D01*
X-182575Y3293567D01*
X-181762Y3284372D01*
X-179476Y3275888D01*
X-175768Y3267913D01*
X-170738Y3260699D01*
X-164490Y3254502D01*
X-157276Y3249422D01*
X-149301Y3245713D01*
X-140817Y3243427D01*
X-131622Y3242614D01*
X-47091Y3242614D01*
X-43230Y3241852D01*
X-39928Y3239668D01*
X2235Y3197504D01*
X4419Y3194202D01*
X5232Y3190290D01*
X5232Y3167735D01*
X4368Y3163671D01*
X1930Y3160268D01*
X-1676Y3158134D01*
X-5842Y3157626D01*
X-11734Y3158134D01*
X-35153Y3158134D01*
X-35153Y3071469D01*
X-4927Y3071469D01*
X-1066Y3070707D01*
X2235Y3068472D01*
X4419Y3065221D01*
X5232Y3061309D01*
X5232Y2983890D01*
X4419Y2979978D01*
X2235Y2976676D01*
X-1066Y2974492D01*
X-4927Y2973730D01*
X-35153Y2973730D01*
X-35153Y2887014D01*
X-15544Y2887014D01*
X-11430Y2886151D01*
X-7975Y2883611D01*
X-5892Y2879953D01*
X-5486Y2875686D01*
X-6858Y2871673D01*
X-9753Y2868574D01*
X-12090Y2866898D01*
X-18338Y2860700D01*
X-23368Y2853486D01*
X-27076Y2845511D01*
X-29362Y2837027D01*
X-30175Y2827782D01*
X-30175Y2658567D01*
X-29362Y2649372D01*
X-27076Y2640888D01*
X-23368Y2632913D01*
X-18338Y2625699D01*
X-12090Y2619502D01*
X-4876Y2614422D01*
X-660Y2612440D01*
X2438Y2610205D01*
X4470Y2607005D01*
X5232Y2603246D01*
X5283Y2545537D01*
X6096Y2536748D01*
X6502Y2534310D01*
X8636Y2525725D01*
X9398Y2523439D01*
X12598Y2515666D01*
X13411Y2511806D01*
X13411Y2486253D01*
X12598Y2482240D01*
X10261Y2478887D01*
X6807Y2476754D01*
X2794Y2476093D01*
X-1168Y2477109D01*
X-9194Y2480970D01*
X-17424Y2483510D01*
X-17424Y2391410D01*
X-457Y2391410D01*
X3403Y2390648D01*
X6705Y2388412D01*
X8940Y2385161D01*
X9702Y2381250D01*
X9702Y2287117D01*
X8940Y2283206D01*
X6705Y2279904D01*
X3403Y2277719D01*
X-457Y2276957D01*
X-17424Y2276957D01*
X-17424Y2184857D01*
X-9194Y2187397D01*
X1473Y2192528D01*
X11277Y2199182D01*
X18491Y2205888D01*
X21691Y2207920D01*
X25400Y2208580D01*
X29108Y2207920D01*
X32308Y2205888D01*
X39522Y2199182D01*
X49326Y2192528D01*
X59994Y2187397D01*
X71272Y2183892D01*
X83007Y2182114D01*
X94792Y2182114D01*
X106527Y2183892D01*
X117805Y2187397D01*
X128473Y2192528D01*
X138277Y2199182D01*
X145491Y2205888D01*
X148691Y2207920D01*
X152400Y2208580D01*
X156108Y2207920D01*
X159308Y2205888D01*
X166522Y2199182D01*
X176326Y2192528D01*
X186994Y2187397D01*
X198272Y2183892D01*
X210007Y2182114D01*
X222046Y2182114D01*
X225907Y2181352D01*
X229209Y2179167D01*
X231394Y2175865D01*
X232206Y2171954D01*
X231394Y2168093D01*
X229209Y2164791D01*
X174904Y2110486D01*
X171602Y2108250D01*
X167690Y2107488D01*
X-28041Y2107438D01*
X-36830Y2106625D01*
X-39268Y2106218D01*
X-47853Y2104085D01*
X-50139Y2103323D01*
X-60502Y2098852D01*
X-68072Y2094280D01*
X-70104Y2092858D01*
X-76911Y2087219D01*
X-212140Y1951989D01*
X-219202Y1943150D01*
X-223774Y1935581D01*
X-228244Y1925218D01*
X-229006Y1922932D01*
X-231140Y1914347D01*
X-231546Y1911908D01*
X-232359Y1903120D01*
X-232410Y1536954D01*
X-233171Y1533194D01*
X-235204Y1529943D01*
X-238302Y1527708D01*
X-242519Y1525778D01*
X-249732Y1520698D01*
X-255981Y1514500D01*
X-261010Y1507286D01*
X-264718Y1499311D01*
X-267004Y1490827D01*
X-267817Y1481582D01*
X-267817Y1312367D01*
X-267004Y1303172D01*
X-264718Y1294688D01*
X-261010Y1286713D01*
X-255981Y1279499D01*
X-249732Y1273302D01*
X-242519Y1268222D01*
X-234543Y1264513D01*
X-226060Y1262227D01*
X-216865Y1261414D01*
X-148691Y1261414D01*
X-144830Y1260652D01*
X-141528Y1258468D01*
X43078Y1073861D01*
X45262Y1070559D01*
X46024Y1066698D01*
X46024Y982167D01*
X46837Y972972D01*
X49123Y964488D01*
X52832Y956513D01*
X57861Y949299D01*
X64109Y943102D01*
X71323Y938021D01*
X75539Y936040D01*
X78638Y933805D01*
X80670Y930605D01*
X81432Y926846D01*
X81432Y905256D01*
X80467Y900988D01*
X77774Y897483D01*
X73863Y895451D01*
X70256Y894486D01*
X62280Y890778D01*
X55067Y885698D01*
X48818Y879500D01*
X43789Y872286D01*
X40081Y864311D01*
X37795Y855827D01*
X36982Y846582D01*
X36982Y762101D01*
X36220Y758240D01*
X34036Y754938D01*
X7162Y728065D01*
X3860Y725881D01*
X0Y725119D01*
X-3911Y725881D01*
X-7162Y728065D01*
X-34036Y754938D01*
X-36220Y758190D01*
X-36982Y762101D01*
X-36982Y846582D01*
X-37795Y855827D01*
X-40081Y864311D01*
X-43789Y872286D01*
X-48818Y879500D01*
X-55067Y885698D01*
X-62280Y890778D01*
X-70256Y894486D01*
X-78740Y896772D01*
X-87934Y897534D01*
X-207822Y897534D01*
X-217830Y896670D01*
X-221996Y897178D01*
X-225602Y899312D01*
X-228041Y902716D01*
X-228904Y906780D01*
X-228904Y1167942D01*
X-229717Y1177188D01*
X-231952Y1185672D01*
X-235712Y1193647D01*
X-240741Y1200861D01*
X-246938Y1207058D01*
X-254152Y1212088D01*
X-262128Y1215847D01*
X-270611Y1218082D01*
X-279857Y1218895D01*
X-371551Y1218895D01*
X-375412Y1219657D01*
X-378714Y1221892D01*
X-380898Y1225194D01*
X-381711Y1229055D01*
X-381711Y1254963D01*
X-380949Y1258722D01*
X-378917Y1261922D01*
X-375818Y1264158D01*
X-367080Y1268222D01*
X-359867Y1273302D01*
X-353618Y1279499D01*
X-348589Y1286713D01*
X-344881Y1294688D01*
X-342595Y1303172D01*
X-341782Y1312367D01*
X-341782Y1481582D01*
X-342595Y1490827D01*
X-344881Y1499311D01*
X-348589Y1507286D01*
X-353618Y1514500D01*
X-359867Y1520698D01*
X-367080Y1525778D01*
X-375056Y1529486D01*
X-383540Y1531772D01*
X-392734Y1532534D01*
X-512622Y1532534D01*
X-521817Y1531772D01*
X-530301Y1529486D01*
X-538276Y1525778D01*
X-545490Y1520698D01*
X-551738Y1514500D01*
X-556768Y1507286D01*
X-560476Y1499311D01*
X-562762Y1490827D01*
X-563575Y1481582D01*
X-563575Y1312367D01*
X-562762Y1303172D01*
X-560476Y1294688D01*
X-556768Y1286713D01*
X-551738Y1279499D01*
X-545541Y1273302D01*
X-537108Y1267561D01*
X-534771Y1265275D01*
X-533247Y1262380D01*
X-532688Y1259179D01*
X-532688Y402234D01*
X-533400Y398526D01*
X-535381Y395376D01*
X-538378Y393090D01*
X-550468Y389839D01*
X-558444Y386080D01*
X-565658Y381050D01*
X-571855Y374853D01*
X-576884Y367639D01*
X-580644Y359664D01*
X-582879Y351180D01*
X-583692Y341934D01*
X-583692Y340055D01*
X-584504Y336194D01*
X-586689Y332892D01*
X-664819Y254711D01*
X-670458Y247904D01*
X-671880Y245871D01*
X-676452Y238302D01*
X-680923Y227939D01*
X-681685Y225653D01*
X-683818Y217068D01*
X-684225Y214629D01*
X-685038Y205841D01*
X-685038Y-1482699D01*
X-684225Y-1491488D01*
X-683818Y-1493926D01*
X-681685Y-1502511D01*
X-680923Y-1504797D01*
X-676452Y-1515160D01*
X-671880Y-1522730D01*
X-670458Y-1524762D01*
X-664819Y-1531569D01*
X-413969Y-1782470D01*
X-411784Y-1785772D01*
X-411022Y-1789633D01*
X-411022Y-1817166D01*
X-411784Y-1821027D01*
X-413969Y-1824329D01*
X-512419Y-1922830D01*
X-518058Y-1929638D01*
X-519480Y-1931670D01*
X-524052Y-1939239D01*
X-528523Y-1949602D01*
X-529285Y-1951888D01*
X-531418Y-1960473D01*
X-531825Y-1962912D01*
X-532638Y-1971700D01*
X-532688Y-2109927D01*
X-533501Y-2113838D01*
X-535686Y-2117090D01*
X-538988Y-2119325D01*
X-542848Y-2120087D01*
X-546760Y-2120087D01*
X-555955Y-2120900D01*
X-564438Y-2123186D01*
X-572414Y-2126894D01*
X-579628Y-2131923D01*
X-585876Y-2138172D01*
X-590905Y-2145385D01*
X-594614Y-2153310D01*
X-596900Y-2161844D01*
X-597712Y-2171039D01*
X-597712Y-2350160D01*
X-596900Y-2359355D01*
X-594614Y-2367838D01*
X-590905Y-2375814D01*
X-586740Y-2381758D01*
X-585114Y-2385517D01*
X-585114Y-2389632D01*
X-586740Y-2393442D01*
X-590905Y-2399385D01*
X-594614Y-2407310D01*
X-596900Y-2415844D01*
X-597712Y-2425039D01*
X-597712Y-2604160D01*
X-596900Y-2613355D01*
X-594614Y-2621838D01*
X-590905Y-2629814D01*
X-586740Y-2635758D01*
X-585114Y-2639517D01*
X-585114Y-2643632D01*
X-586740Y-2647442D01*
X-590905Y-2653385D01*
X-594614Y-2661310D01*
X-596900Y-2669844D01*
X-597712Y-2679039D01*
X-597712Y-2717241D01*
X-508558Y-2717241D01*
X-508558Y-2665272D01*
X-507796Y-2661361D01*
X-505561Y-2658059D01*
X-502259Y-2655874D01*
X-498398Y-2655112D01*
X-416001Y-2655112D01*
X-412140Y-2655874D01*
X-408838Y-2658059D01*
X-406603Y-2661361D01*
X-405841Y-2665272D01*
X-405841Y-2717241D01*
X-316687Y-2717241D01*
X-316687Y-2679039D01*
X-317500Y-2669844D01*
X-319786Y-2661310D01*
X-323494Y-2653385D01*
X-327660Y-2647442D01*
X-329285Y-2643632D01*
X-329285Y-2639517D01*
X-327660Y-2635758D01*
X-323494Y-2629814D01*
X-319786Y-2621838D01*
X-317500Y-2613355D01*
X-316687Y-2604160D01*
X-316687Y-2600248D01*
X-315925Y-2596388D01*
X-313740Y-2593086D01*
X-310438Y-2590901D01*
X-306527Y-2590088D01*
X-212648Y-2590088D01*
X-208788Y-2590901D01*
X-205486Y-2593086D01*
X-203301Y-2596388D01*
X-202488Y-2600248D01*
X-202488Y-2721102D01*
X-202996Y-2724251D01*
X-204470Y-2727096D01*
X-206705Y-2729331D01*
X-215950Y-2736037D01*
X-227736Y-2746857D01*
X-238252Y-2758998D01*
X-247294Y-2772257D01*
X-254812Y-2786430D01*
X-260604Y-2801366D01*
X-264668Y-2816910D01*
X-266954Y-2832760D01*
X-267411Y-2848813D01*
X-266039Y-2864764D01*
X-262890Y-2880512D01*
X-257911Y-2895752D01*
X-251256Y-2910382D01*
X-242976Y-2924098D01*
X-233171Y-2936798D01*
X-221996Y-2948279D01*
X-209600Y-2958439D01*
X-196088Y-2967126D01*
X-181711Y-2974187D01*
X-166573Y-2979572D01*
X-150977Y-2983230D01*
X-135026Y-2985058D01*
X-118973Y-2985058D01*
X-103022Y-2983230D01*
X-87426Y-2979572D01*
X-72288Y-2974187D01*
X-57912Y-2967126D01*
X-44399Y-2958439D01*
X-32004Y-2948279D01*
X-20828Y-2936798D01*
X-11023Y-2924098D01*
X-8686Y-2920238D01*
X-5892Y-2917190D01*
X-2082Y-2915513D01*
X2082Y-2915513D01*
X5892Y-2917190D01*
X8686Y-2920238D01*
X11023Y-2924098D01*
X20828Y-2936798D01*
X32004Y-2948279D01*
X44399Y-2958439D01*
X46837Y-2960014D01*
X49326Y-2962249D01*
X50952Y-2965246D01*
X51511Y-2968548D01*
X51511Y-3634282D01*
X50800Y-3637940D01*
X48869Y-3641090D01*
X45923Y-3643325D01*
X42418Y-3644392D01*
X38709Y-3644087D01*
X35458Y-3643223D01*
X17830Y-3640429D01*
X0Y-3639515D01*
X-17830Y-3640429D01*
X-35458Y-3643223D01*
X-52679Y-3647846D01*
X-69342Y-3654247D01*
X-85242Y-3662324D01*
X-100228Y-3672078D01*
X-114096Y-3683304D01*
X-126695Y-3695903D01*
X-137922Y-3709771D01*
X-147675Y-3724757D01*
X-155752Y-3740658D01*
X-162153Y-3757320D01*
X-166776Y-3774541D01*
X-169570Y-3792169D01*
X-170484Y-3810000D01*
X-169570Y-3827830D01*
X-166776Y-3845458D01*
X-162153Y-3862679D01*
X-155752Y-3879342D01*
X-147675Y-3895242D01*
X-137922Y-3910228D01*
X-126695Y-3924096D01*
X-114096Y-3936695D01*
X-100228Y-3947922D01*
X-85242Y-3957624D01*
X-69342Y-3965752D01*
X-52679Y-3972153D01*
X-35458Y-3976776D01*
X-17830Y-3979570D01*
G37*
G36*
X441655Y-3966921D02*
G01*
X441655Y-3876344D01*
X351078Y-3876344D01*
X352247Y-3879342D01*
X360324Y-3895242D01*
X370078Y-3910228D01*
X381304Y-3924096D01*
X393903Y-3936695D01*
X407771Y-3947922D01*
X422757Y-3957624D01*
X438658Y-3965752D01*
G37*
G36*
X574344Y-3966921D02*
G01*
X577342Y-3965752D01*
X593242Y-3957624D01*
X608228Y-3947922D01*
X622096Y-3936695D01*
X634695Y-3924096D01*
X645922Y-3910228D01*
X655675Y-3895242D01*
X663752Y-3879342D01*
X664921Y-3876344D01*
X574344Y-3876344D01*
G37*
G36*
X351078Y-3743655D02*
G01*
X441655Y-3743655D01*
X441655Y-3653078D01*
X438658Y-3654247D01*
X422757Y-3662324D01*
X407771Y-3672078D01*
X393903Y-3683304D01*
X381304Y-3695903D01*
X370078Y-3709771D01*
X360324Y-3724757D01*
X352247Y-3740658D01*
G37*
G36*
X574344Y-3743655D02*
G01*
X664921Y-3743655D01*
X663752Y-3740658D01*
X655675Y-3724757D01*
X645922Y-3709771D01*
X634695Y-3695903D01*
X622096Y-3683304D01*
X608228Y-3672078D01*
X593242Y-3662324D01*
X577342Y-3654247D01*
X574344Y-3653078D01*
G37*
G36*
X432358Y-2985312D02*
G01*
X470560Y-2985312D01*
X479755Y-2984500D01*
X488238Y-2982214D01*
X496214Y-2978505D01*
X503428Y-2973476D01*
X509676Y-2967228D01*
X514705Y-2960014D01*
X518414Y-2952038D01*
X520700Y-2943555D01*
X521512Y-2934360D01*
X521512Y-2896158D01*
X432358Y-2896158D01*
G37*
G36*
X-405841Y-2909112D02*
G01*
X-367639Y-2909112D01*
X-358444Y-2908300D01*
X-349961Y-2906014D01*
X-341985Y-2902305D01*
X-334772Y-2897276D01*
X-328523Y-2891028D01*
X-323494Y-2883814D01*
X-319786Y-2875838D01*
X-317500Y-2867355D01*
X-316687Y-2858160D01*
X-316687Y-2819958D01*
X-405841Y-2819958D01*
G37*
G36*
X-546760Y-2909112D02*
G01*
X-508558Y-2909112D01*
X-508558Y-2819958D01*
X-597712Y-2819958D01*
X-597712Y-2858160D01*
X-596900Y-2867355D01*
X-594614Y-2875838D01*
X-590905Y-2883814D01*
X-585876Y-2891028D01*
X-579628Y-2897276D01*
X-572414Y-2902305D01*
X-564438Y-2906014D01*
X-555955Y-2908300D01*
G37*
G36*
X432358Y-2793441D02*
G01*
X521512Y-2793441D01*
X521512Y-2755239D01*
X520700Y-2746044D01*
X518414Y-2737510D01*
X514705Y-2729585D01*
X509676Y-2722372D01*
X503428Y-2716123D01*
X496214Y-2711094D01*
X488238Y-2707386D01*
X479755Y-2705100D01*
X470560Y-2704287D01*
X432358Y-2704287D01*
G37*
G36*
X110845Y-2346706D02*
G01*
X141173Y-2346706D01*
X141173Y-2259330D01*
X59893Y-2259330D01*
X59893Y-2295753D01*
X60706Y-2304948D01*
X62991Y-2313482D01*
X66700Y-2321407D01*
X71729Y-2328621D01*
X77978Y-2334869D01*
X85140Y-2339898D01*
X93116Y-2343607D01*
X101650Y-2345893D01*
G37*
G36*
X228142Y-2346706D02*
G01*
X258470Y-2346706D01*
X267665Y-2345893D01*
X276148Y-2343607D01*
X284124Y-2339898D01*
X291338Y-2334869D01*
X297586Y-2328621D01*
X302615Y-2321407D01*
X306324Y-2313482D01*
X308610Y-2304948D01*
X309422Y-2295753D01*
X309422Y-2259330D01*
X228142Y-2259330D01*
G37*
G36*
X228142Y-2160270D02*
G01*
X309422Y-2160270D01*
X309422Y-2123846D01*
X308610Y-2114651D01*
X306324Y-2106117D01*
X302615Y-2098141D01*
X297586Y-2090978D01*
X291338Y-2084730D01*
X284124Y-2079701D01*
X276148Y-2075992D01*
X267665Y-2073706D01*
X258470Y-2072893D01*
X228142Y-2072893D01*
G37*
G36*
X59893Y-2160270D02*
G01*
X141173Y-2160270D01*
X141173Y-2072893D01*
X110845Y-2072893D01*
X101650Y-2073706D01*
X93116Y-2075992D01*
X85140Y-2079701D01*
X77978Y-2084730D01*
X71729Y-2090978D01*
X66700Y-2098141D01*
X62991Y-2106117D01*
X60706Y-2114651D01*
X59893Y-2123846D01*
G37*
G36*
X75742Y-1940306D02*
G01*
X106070Y-1940306D01*
X115265Y-1939493D01*
X123748Y-1937207D01*
X131724Y-1933498D01*
X138938Y-1928469D01*
X145186Y-1922221D01*
X150215Y-1915007D01*
X153924Y-1907082D01*
X156210Y-1898548D01*
X157022Y-1889353D01*
X157022Y-1852930D01*
X75742Y-1852930D01*
G37*
G36*
X75742Y-1753870D02*
G01*
X157022Y-1753870D01*
X157022Y-1717446D01*
X156210Y-1708251D01*
X153924Y-1699717D01*
X150215Y-1691741D01*
X145186Y-1684578D01*
X138938Y-1678330D01*
X131724Y-1673301D01*
X123748Y-1669592D01*
X115265Y-1667306D01*
X106070Y-1666493D01*
X75742Y-1666493D01*
G37*
G36*
X506069Y-1325575D02*
G01*
X541782Y-1325575D01*
X551027Y-1324762D01*
X559511Y-1322476D01*
X567486Y-1318768D01*
X574700Y-1313688D01*
X580898Y-1307490D01*
X585978Y-1300276D01*
X589686Y-1292301D01*
X591972Y-1283817D01*
X592734Y-1274622D01*
X592734Y-1251204D01*
X506069Y-1251204D01*
G37*
G36*
X244551Y-1230680D02*
G01*
X256895Y-1225448D01*
X269748Y-1218031D01*
X281584Y-1209090D01*
X292252Y-1198778D01*
X301345Y-1187450D01*
X302361Y-1183843D01*
X304596Y-1180795D01*
X307797Y-1178814D01*
X311505Y-1178153D01*
X408330Y-1178153D01*
X408330Y-1103782D01*
X372618Y-1103782D01*
X363372Y-1104595D01*
X354888Y-1106881D01*
X346913Y-1110589D01*
X343763Y-1112824D01*
X344017Y-1118209D01*
X342849Y-1135532D01*
X340055Y-1150670D01*
X338785Y-1153922D01*
X336550Y-1156614D01*
X333502Y-1158341D01*
X330047Y-1158951D01*
X244551Y-1158951D01*
G37*
G36*
X506069Y-1178153D02*
G01*
X592734Y-1178153D01*
X592734Y-1154734D01*
X591972Y-1145540D01*
X589686Y-1137056D01*
X585978Y-1129080D01*
X580898Y-1121867D01*
X574700Y-1115618D01*
X567486Y-1110589D01*
X559511Y-1106881D01*
X551027Y-1104595D01*
X541782Y-1103782D01*
X506069Y-1103782D01*
G37*
G36*
X506069Y-715975D02*
G01*
X541782Y-715975D01*
X551027Y-715162D01*
X559511Y-712876D01*
X567486Y-709168D01*
X574700Y-704138D01*
X580898Y-697890D01*
X585978Y-690676D01*
X589686Y-682701D01*
X591972Y-674217D01*
X592734Y-665022D01*
X592734Y-641604D01*
X506069Y-641604D01*
G37*
G36*
X506069Y-568553D02*
G01*
X592734Y-568553D01*
X592734Y-545134D01*
X591972Y-535940D01*
X589686Y-527456D01*
X585978Y-519480D01*
X580898Y-512267D01*
X574700Y-506018D01*
X567486Y-500989D01*
X559511Y-497281D01*
X551027Y-494995D01*
X541782Y-494182D01*
X506069Y-494182D01*
G37*
G36*
X-58775Y2184857D02*
G01*
X-58775Y2276957D01*
X-117297Y2276957D01*
X-117297Y2261463D01*
X-116382Y2249271D01*
X-113741Y2237740D01*
X-109423Y2226716D01*
X-103530Y2216505D01*
X-96164Y2207260D01*
X-87477Y2199182D01*
X-77673Y2192528D01*
X-67005Y2187397D01*
G37*
G36*
X-117297Y2391410D02*
G01*
X-58775Y2391410D01*
X-58775Y2483510D01*
X-67005Y2480970D01*
X-77673Y2475839D01*
X-87477Y2469134D01*
X-96164Y2461107D01*
X-103530Y2451862D01*
X-109423Y2441600D01*
X-113741Y2430576D01*
X-116382Y2419045D01*
X-117297Y2406853D01*
G37*
G36*
X-131622Y2887014D02*
G01*
X-108204Y2887014D01*
X-108204Y2973730D01*
X-182575Y2973730D01*
X-182575Y2937967D01*
X-181762Y2928772D01*
X-179476Y2920288D01*
X-175768Y2912313D01*
X-170738Y2905099D01*
X-164490Y2898902D01*
X-157276Y2893822D01*
X-149301Y2890113D01*
X-140817Y2887827D01*
G37*
G36*
X-182575Y3071469D02*
G01*
X-108204Y3071469D01*
X-108204Y3158134D01*
X-131622Y3158134D01*
X-140817Y3157372D01*
X-149301Y3155086D01*
X-157276Y3151378D01*
X-164490Y3146298D01*
X-170738Y3140100D01*
X-175768Y3132886D01*
X-179476Y3124911D01*
X-181762Y3116427D01*
X-182575Y3107182D01*
G37*

%LPD*%
D15*
X431800Y1447797D02*
G01*
X431800Y1676397D01*
X342900Y1780611D01*
X127000Y-2844800D02*
G01*
X127000Y-3683000D01*
X0Y-3810000D01*
X88900Y1780611D02*
G01*
X215900Y1780611D01*
X203200Y-517598D02*
G01*
X168201Y-517598D01*
X50800Y-635000D01*
X50800Y-1219200D01*
X97078Y-1265478D01*
X97078Y-1473200D01*
X-203200Y-1117600D02*
G01*
X-198678Y-1122121D01*
X-198678Y-1473200D01*
X-133857Y-2209800D02*
G01*
X-133857Y-1538020D01*
X-198678Y-1473200D01*
X-203200Y-1117600D02*
G01*
X-152400Y-1117600D01*
X-49380Y-1014580D01*
X-49380Y-582780D01*
X50800Y-482600D01*
X50800Y664921D01*
X147878Y762000D01*
X-203200Y-117599D02*
G01*
X-142999Y-117599D01*
X-49380Y-23980D01*
X-49380Y663493D01*
X-147878Y762000D01*
X-156969Y1443230D02*
G01*
X-156969Y1397000D01*
X-452678Y1397000D02*
G01*
X-457200Y1392478D01*
X-457200Y282394D01*
X-286257Y-1803400D02*
G01*
X-609600Y-1480057D01*
X-609600Y203200D01*
X-530397Y282394D01*
X-457200Y282394D01*
X452678Y1066800D02*
G01*
X452678Y224078D01*
X310995Y82395D01*
X203200Y82395D01*
X215900Y1780539D02*
G01*
X215900Y1892300D01*
X304800Y1981200D01*
X482600Y1981200D01*
X609600Y1854200D01*
X609600Y630428D01*
X457200Y-309321D02*
G01*
X609600Y-156921D01*
X609600Y630428D01*
X457200Y-309321D02*
G01*
X448919Y-317601D01*
X203200Y-317601D01*
X457200Y-918971D02*
G01*
X203200Y-917702D01*
X215900Y2334178D02*
G01*
X215900Y2539994D01*
X224078Y2548173D01*
X224078Y3022594D01*
X88900Y2334178D02*
G01*
X88900Y2539994D01*
X80721Y2548173D01*
X80721Y2743194D01*
X342900Y2334178D02*
G01*
X342900Y2539994D01*
X376478Y2573573D01*
X376478Y2743194D01*
X-38100Y2334178D02*
G01*
X-38100Y2539994D01*
X-71678Y2573573D01*
X-71678Y3022594D01*
X224078Y3022594D02*
G01*
X224078Y3378192D01*
X224078Y3378194D02*
G01*
X224078Y3555994D01*
X0Y3780073D01*
X0Y3810000D01*
X-71678Y3378194D02*
G01*
X-76200Y3382713D01*
X-80713Y3382713D01*
X-508000Y3810000D01*
X80721Y2743194D02*
G01*
X80721Y3225792D01*
X-71678Y3378192D01*
X-133857Y-2209800D02*
G01*
X-127000Y-2216657D01*
X-127000Y-2844800D01*
X203200Y282447D02*
G01*
X304800Y384047D01*
X-38100Y1780611D02*
G01*
X-38100Y1663697D01*
X177800Y1447797D01*
X304800Y384047D02*
G01*
X304800Y1193800D01*
X177800Y1447797D02*
G01*
X177800Y1320800D01*
X304800Y1193800D01*
X452678Y1066797D02*
G01*
X452678Y1269997D01*
X431800Y1290876D01*
X431800Y1447797D01*
X147878Y761997D02*
G01*
X156921Y771039D01*
X156921Y1066797D01*
X156921Y1066797D02*
G01*
X-156921Y1380639D01*
X-156921Y1396997D01*
X355600Y-1473197D02*
G01*
X97078Y-1473197D01*
X-457200Y-2260594D02*
G01*
X-457200Y-1974339D01*
X-286257Y-1803397D01*
X-457200Y-2514594D02*
G01*
X-127000Y-2514594D01*
X-156921Y1396997D02*
G01*
X-156921Y1900473D01*
X-25400Y2031994D01*
X203200Y2031994D01*
X342900Y2171694D01*
X342900Y2334178D01*
D16*
X342900Y1853692D02*
G01*
X342900Y1707540D01*
X215900Y1853692D02*
G01*
X215900Y1707540D01*
X88900Y1853692D02*
G01*
X88900Y1707540D01*
X-38100Y1853692D02*
G01*
X-38100Y1707540D01*
X342900Y2407259D02*
G01*
X342900Y2261107D01*
X215900Y2407259D02*
G01*
X215900Y2261107D01*
X88900Y2407259D02*
G01*
X88900Y2261107D01*
X-38100Y2407259D02*
G01*
X-38100Y2261107D01*
G36*
X-59601Y-2296198D02*
G01*
X-59601Y-2123396D01*
X-208099Y-2123396D01*
X-208099Y-2296198D01*
G37*
G36*
X110401Y-2296198D02*
G01*
X110401Y-2123396D01*
X258899Y-2123396D01*
X258899Y-2296198D01*
G37*
G36*
X-212001Y-1889798D02*
G01*
X-212001Y-1716996D01*
X-360499Y-1716996D01*
X-360499Y-1889798D01*
G37*
G36*
X-41998Y-1889798D02*
G01*
X-41998Y-1716996D01*
X106499Y-1716996D01*
X106499Y-1889798D01*
G37*
G36*
X163700Y3463241D02*
G01*
X163700Y3293143D01*
X284452Y3293143D01*
X284452Y3463241D01*
G37*
G36*
X-11300Y3463241D02*
G01*
X-11300Y3293143D01*
X-132052Y3293143D01*
X-132052Y3463241D01*
G37*
G36*
X141099Y2658145D02*
G01*
X141099Y2828244D01*
X20347Y2828244D01*
X20347Y2658145D01*
G37*
G36*
X316100Y2658145D02*
G01*
X316100Y2828244D01*
X436852Y2828244D01*
X436852Y2658145D01*
G37*
G36*
X-11300Y2937545D02*
G01*
X-11300Y3107644D01*
X-132052Y3107644D01*
X-132052Y2937545D01*
G37*
G36*
X163700Y2937545D02*
G01*
X163700Y3107644D01*
X284452Y3107644D01*
X284452Y2937545D01*
G37*
D19*
G01*
X457200Y-309321D03*
G36*
X372150Y-544700D02*
G01*
X542249Y-544700D01*
X542249Y-665452D01*
X372150Y-665452D01*
G37*
G36*
X217299Y981748D02*
G01*
X217299Y1151846D01*
X96547Y1151846D01*
X96547Y981748D01*
G37*
G36*
X392300Y981748D02*
G01*
X392300Y1151846D01*
X513052Y1151846D01*
X513052Y981748D01*
G37*
G36*
X-217299Y1482046D02*
G01*
X-217299Y1311948D01*
X-96547Y1311948D01*
X-96547Y1482046D01*
G37*
G36*
X-392300Y1482046D02*
G01*
X-392300Y1311948D01*
X-513052Y1311948D01*
X-513052Y1482046D01*
G37*
G36*
X87500Y847046D02*
G01*
X87500Y676948D01*
X208252Y676948D01*
X208252Y847046D01*
G37*
G36*
X-87500Y847046D02*
G01*
X-87500Y676948D01*
X-208252Y676948D01*
X-208252Y847046D01*
G37*
G01*
X457200Y-918921D03*
G36*
X372150Y-1154297D02*
G01*
X542249Y-1154297D01*
X542249Y-1275049D01*
X372150Y-1275049D01*
G37*
G36*
X-138300Y-1558246D02*
G01*
X-138300Y-1388148D01*
X-259052Y-1388148D01*
X-259052Y-1558246D01*
G37*
G36*
X36700Y-1558246D02*
G01*
X36700Y-1388148D01*
X157452Y-1388148D01*
X157452Y-1558246D01*
G37*
G36*
X-533199Y-1057605D02*
G01*
X-381200Y-1057605D01*
X-381200Y-1177594D01*
X-533199Y-1177594D01*
G37*
G36*
X-533199Y-857605D02*
G01*
X-381200Y-857605D01*
X-381200Y-977595D01*
X-533199Y-977595D01*
G37*
G36*
X-533199Y-657605D02*
G01*
X-381200Y-657605D01*
X-381200Y-777595D01*
X-533199Y-777595D01*
G37*
G36*
X-533199Y-457606D02*
G01*
X-381200Y-457606D01*
X-381200Y-577595D01*
X-533199Y-577595D01*
G37*
G36*
X-533199Y-257606D02*
G01*
X-381200Y-257606D01*
X-381200Y-377596D01*
X-533199Y-377596D01*
G37*
G36*
X-533199Y-57607D02*
G01*
X-381200Y-57607D01*
X-381200Y-177596D01*
X-533199Y-177596D01*
G37*
G36*
X-533199Y142392D02*
G01*
X-381200Y142392D01*
X-381200Y22402D01*
X-533199Y22402D01*
G37*
G36*
X-533199Y342392D02*
G01*
X-381200Y342392D01*
X-381200Y222402D01*
X-533199Y222402D01*
G37*
G36*
X-279199Y342392D02*
G01*
X-127200Y342392D01*
X-127200Y222402D01*
X-279199Y222402D01*
G37*
G36*
X-279199Y142392D02*
G01*
X-127200Y142392D01*
X-127200Y22402D01*
X-279199Y22402D01*
G37*
G36*
X-279199Y-57607D02*
G01*
X-127200Y-57607D01*
X-127200Y-177596D01*
X-279199Y-177596D01*
G37*
G36*
X-279199Y-257606D02*
G01*
X-127200Y-257606D01*
X-127200Y-377596D01*
X-279199Y-377596D01*
G37*
G36*
X-279199Y-457606D02*
G01*
X-127200Y-457606D01*
X-127200Y-577595D01*
X-279199Y-577595D01*
G37*
G36*
X-279199Y-657605D02*
G01*
X-127200Y-657605D01*
X-127200Y-777595D01*
X-279199Y-777595D01*
G37*
G36*
X-279199Y-857605D02*
G01*
X-127200Y-857605D01*
X-127200Y-977595D01*
X-279199Y-977595D01*
G37*
G36*
X-279199Y-1057605D02*
G01*
X-127200Y-1057605D01*
X-127200Y-1177594D01*
X-279199Y-1177594D01*
G37*
D11*
G01*
X-457200Y-2514600D03*
G01*
X355600Y-1473200D03*
G01*
X-457200Y-2768600D03*
G01*
X-457200Y-2260600D03*
G01*
X177800Y1447800D03*
G01*
X431800Y1447800D03*
D12*
G01*
X0Y3810000D03*
G01*
X-508000Y3810000D03*
G01*
X0Y-3810000D03*
G01*
X508000Y-3810000D03*
D11*
G01*
X381000Y-2844800D03*
D13*
G01*
X203200Y-1117600D03*
G01*
X203200Y-917600D03*
G01*
X203200Y-717600D03*
G01*
X203200Y-517601D03*
G01*
X203200Y-317601D03*
G01*
X203200Y-117602D03*
G01*
X203200Y82397D03*
G01*
X203200Y282397D03*
D14*
X-127000Y-2844800D02*
G01*
X-127000Y-2844800D01*
X127000Y-2844800D02*
G01*
X127000Y-2844800D01*
M02*
