G04 Layer: BottomSilkscreenLayer*
G04 EasyEDA v6.5.5, 2022-05-12 14:51:26*
G04 adf74ae4be104b6fa4aa75e98640d5de,defc1f93b7bc4f92b0c06f3051cee8fa,10*
G04 Gerber Generator version 0.2*
G04 Scale: 100 percent, Rotated: No, Reflected: No *
G04 Dimensions in millimeters *
G04 leading zeros omitted , absolute positions ,4 integer and 5 decimal *
%FSLAX45Y45*%
%MOMM*%

%ADD24C,0.1524*%
%ADD26C,0.3000*%

%LPD*%
D24*
X-52578Y-1967989D02*
G01*
X-47244Y-1957575D01*
X-36829Y-1947161D01*
X-26670Y-1942081D01*
X-5842Y-1942081D01*
X4571Y-1947161D01*
X14986Y-1957575D01*
X20320Y-1967989D01*
X25400Y-1983737D01*
X25400Y-2009645D01*
X20320Y-2025139D01*
X14986Y-2035553D01*
X4571Y-2045967D01*
X-5842Y-2051047D01*
X-26670Y-2051047D01*
X-36829Y-2045967D01*
X-47244Y-2035553D01*
X-52578Y-2025139D01*
X-86868Y-1942081D02*
G01*
X-86868Y-2051047D01*
X-86868Y-1942081D02*
G01*
X-133604Y-1942081D01*
X-149097Y-1947161D01*
X-154431Y-1952495D01*
X-159512Y-1962909D01*
X-159512Y-1978403D01*
X-154431Y-1988817D01*
X-149097Y-1993897D01*
X-133604Y-1999231D01*
X-86868Y-1999231D01*
X-204978Y-1561589D02*
G01*
X-199644Y-1551175D01*
X-189229Y-1540761D01*
X-179070Y-1535681D01*
X-158242Y-1535681D01*
X-147828Y-1540761D01*
X-137413Y-1551175D01*
X-132079Y-1561589D01*
X-127000Y-1577337D01*
X-127000Y-1603245D01*
X-132079Y-1618739D01*
X-137413Y-1629153D01*
X-147828Y-1639567D01*
X-158242Y-1644647D01*
X-179070Y-1644647D01*
X-189229Y-1639567D01*
X-199644Y-1629153D01*
X-204978Y-1618739D01*
X-239268Y-1535681D02*
G01*
X-239268Y-1644647D01*
X-239268Y-1535681D02*
G01*
X-286004Y-1535681D01*
X-301497Y-1540761D01*
X-306831Y-1546095D01*
X-311912Y-1556509D01*
X-311912Y-1566923D01*
X-306831Y-1577337D01*
X-301497Y-1582417D01*
X-286004Y-1587497D01*
X-239268Y-1587497D01*
X-275589Y-1587497D02*
G01*
X-311912Y-1644647D01*
X76200Y3110476D02*
G01*
X76200Y3219442D01*
X76200Y3110476D02*
G01*
X122936Y3110476D01*
X138429Y3115556D01*
X143763Y3120890D01*
X148844Y3131304D01*
X148844Y3141718D01*
X143763Y3152132D01*
X138429Y3157212D01*
X122936Y3162292D01*
X76200Y3162292D01*
X112521Y3162292D02*
G01*
X148844Y3219442D01*
X183134Y3131304D02*
G01*
X193547Y3125970D01*
X209295Y3110476D01*
X209295Y3219442D01*
X228600Y3010910D02*
G01*
X228600Y2901944D01*
X228600Y3010910D02*
G01*
X181863Y3010910D01*
X166370Y3005830D01*
X161036Y3000496D01*
X155955Y2990082D01*
X155955Y2979668D01*
X161036Y2969254D01*
X166370Y2964174D01*
X181863Y2959094D01*
X228600Y2959094D01*
X192278Y2959094D02*
G01*
X155955Y2901944D01*
X116331Y2985002D02*
G01*
X116331Y2990082D01*
X111252Y3000496D01*
X105918Y3005830D01*
X95504Y3010910D01*
X74929Y3010910D01*
X64515Y3005830D01*
X59181Y3000496D01*
X54102Y2990082D01*
X54102Y2979668D01*
X59181Y2969254D01*
X69595Y2953760D01*
X121665Y2901944D01*
X48768Y2901944D01*
X76200Y3290310D02*
G01*
X76200Y3181344D01*
X76200Y3290310D02*
G01*
X29463Y3290310D01*
X13970Y3285230D01*
X8636Y3279896D01*
X3555Y3269482D01*
X3555Y3259068D01*
X8636Y3248654D01*
X13970Y3243574D01*
X29463Y3238494D01*
X76200Y3238494D01*
X39878Y3238494D02*
G01*
X3555Y3181344D01*
X-41147Y3290310D02*
G01*
X-98297Y3290310D01*
X-67310Y3248654D01*
X-82804Y3248654D01*
X-93218Y3243574D01*
X-98297Y3238494D01*
X-103631Y3222746D01*
X-103631Y3212332D01*
X-98297Y3196838D01*
X-87884Y3186424D01*
X-72389Y3181344D01*
X-56895Y3181344D01*
X-41147Y3186424D01*
X-36068Y3191504D01*
X-30734Y3201918D01*
X724915Y-457200D02*
G01*
X615950Y-457200D01*
X724915Y-457200D02*
G01*
X724915Y-410463D01*
X719836Y-394970D01*
X714502Y-389636D01*
X704087Y-384555D01*
X693673Y-384555D01*
X683260Y-389636D01*
X678179Y-394970D01*
X673100Y-410463D01*
X673100Y-457200D01*
X673100Y-420878D02*
G01*
X615950Y-384555D01*
X724915Y-298195D02*
G01*
X652271Y-350265D01*
X652271Y-272287D01*
X724915Y-298195D02*
G01*
X615950Y-298195D01*
X304800Y1334513D02*
G01*
X304800Y1225547D01*
X304800Y1334513D02*
G01*
X258063Y1334513D01*
X242570Y1329433D01*
X237236Y1324099D01*
X232155Y1313685D01*
X232155Y1303271D01*
X237236Y1292857D01*
X242570Y1287777D01*
X258063Y1282697D01*
X304800Y1282697D01*
X268478Y1282697D02*
G01*
X232155Y1225547D01*
X135381Y1334513D02*
G01*
X187452Y1334513D01*
X192531Y1287777D01*
X187452Y1292857D01*
X171704Y1298191D01*
X156210Y1298191D01*
X140715Y1292857D01*
X130302Y1282697D01*
X124968Y1266949D01*
X124968Y1256535D01*
X130302Y1241041D01*
X140715Y1230627D01*
X156210Y1225547D01*
X171704Y1225547D01*
X187452Y1230627D01*
X192531Y1235707D01*
X197865Y1246121D01*
X-304800Y1129281D02*
G01*
X-304800Y1238247D01*
X-304800Y1129281D02*
G01*
X-258063Y1129281D01*
X-242570Y1134361D01*
X-237236Y1139695D01*
X-232155Y1150109D01*
X-232155Y1160523D01*
X-237236Y1170937D01*
X-242570Y1176017D01*
X-258063Y1181097D01*
X-304800Y1181097D01*
X-268478Y1181097D02*
G01*
X-232155Y1238247D01*
X-124968Y1129281D02*
G01*
X-177037Y1238247D01*
X-197865Y1129281D02*
G01*
X-124968Y1129281D01*
X0Y494281D02*
G01*
X0Y603247D01*
X0Y494281D02*
G01*
X46736Y494281D01*
X62229Y499361D01*
X67563Y504695D01*
X72644Y515109D01*
X72644Y525523D01*
X67563Y535937D01*
X62229Y541017D01*
X46736Y546097D01*
X0Y546097D01*
X36321Y546097D02*
G01*
X72644Y603247D01*
X133095Y494281D02*
G01*
X117347Y499361D01*
X112268Y509775D01*
X112268Y520189D01*
X117347Y530603D01*
X127762Y535937D01*
X148589Y541017D01*
X164084Y546097D01*
X174497Y556511D01*
X179831Y566925D01*
X179831Y582673D01*
X174497Y593087D01*
X169418Y598167D01*
X153670Y603247D01*
X133095Y603247D01*
X117347Y598167D01*
X112268Y593087D01*
X106934Y582673D01*
X106934Y566925D01*
X112268Y556511D01*
X122681Y546097D01*
X138176Y541017D01*
X159004Y535937D01*
X169418Y530603D01*
X174497Y520189D01*
X174497Y509775D01*
X169418Y499361D01*
X153670Y494281D01*
X133095Y494281D01*
X724915Y-1066797D02*
G01*
X615950Y-1066797D01*
X724915Y-1066797D02*
G01*
X724915Y-1020061D01*
X719836Y-1004567D01*
X714502Y-999233D01*
X704087Y-994153D01*
X693673Y-994153D01*
X683260Y-999233D01*
X678179Y-1004567D01*
X673100Y-1020061D01*
X673100Y-1066797D01*
X673100Y-1030475D02*
G01*
X615950Y-994153D01*
X688594Y-892299D02*
G01*
X673100Y-897379D01*
X662686Y-907793D01*
X657352Y-923287D01*
X657352Y-928621D01*
X662686Y-944115D01*
X673100Y-954529D01*
X688594Y-959863D01*
X693673Y-959863D01*
X709421Y-954529D01*
X719836Y-944115D01*
X724915Y-928621D01*
X724915Y-923287D01*
X719836Y-907793D01*
X709421Y-897379D01*
X688594Y-892299D01*
X662686Y-892299D01*
X636523Y-897379D01*
X621029Y-907793D01*
X615950Y-923287D01*
X615950Y-933701D01*
X621029Y-949449D01*
X631444Y-954529D01*
X-50800Y-1205481D02*
G01*
X-50800Y-1314447D01*
X-50800Y-1205481D02*
G01*
X-97536Y-1205481D01*
X-113029Y-1210561D01*
X-118363Y-1215895D01*
X-123444Y-1226309D01*
X-123444Y-1236723D01*
X-118363Y-1247137D01*
X-113029Y-1252217D01*
X-97536Y-1257297D01*
X-50800Y-1257297D01*
X-87121Y-1257297D02*
G01*
X-123444Y-1314447D01*
X-157734Y-1226309D02*
G01*
X-168147Y-1220975D01*
X-183895Y-1205481D01*
X-183895Y-1314447D01*
X-249173Y-1205481D02*
G01*
X-233679Y-1210561D01*
X-223265Y-1226309D01*
X-218186Y-1252217D01*
X-218186Y-1267711D01*
X-223265Y-1293873D01*
X-233679Y-1309367D01*
X-249173Y-1314447D01*
X-259587Y-1314447D01*
X-275336Y-1309367D01*
X-285750Y-1293873D01*
X-290829Y-1267711D01*
X-290829Y-1252217D01*
X-285750Y-1226309D01*
X-275336Y-1210561D01*
X-259587Y-1205481D01*
X-249173Y-1205481D01*
X177800Y2579110D02*
G01*
X177800Y2501132D01*
X172720Y2485638D01*
X162305Y2475224D01*
X146557Y2470144D01*
X136144Y2470144D01*
X120650Y2475224D01*
X110236Y2485638D01*
X105155Y2501132D01*
X105155Y2579110D01*
X65531Y2553202D02*
G01*
X65531Y2558282D01*
X60452Y2568696D01*
X55118Y2574030D01*
X44704Y2579110D01*
X24129Y2579110D01*
X13715Y2574030D01*
X8381Y2568696D01*
X3302Y2558282D01*
X3302Y2547868D01*
X8381Y2537454D01*
X18795Y2521960D01*
X70865Y2470144D01*
X-2031Y2470144D01*
X-215719Y-2100536D02*
G01*
X-67221Y-2100536D01*
X-67221Y-2319058D02*
G01*
X-215719Y-2319058D01*
X-230959Y-2303818D02*
G01*
X-230959Y-2115776D01*
X266519Y-2100536D02*
G01*
X118021Y-2100536D01*
X118021Y-2319058D02*
G01*
X266519Y-2319058D01*
X281759Y-2303818D02*
G01*
X281759Y-2115776D01*
X-368119Y-1694136D02*
G01*
X-219621Y-1694136D01*
X-219621Y-1912658D02*
G01*
X-368119Y-1912658D01*
X-383359Y-1897418D02*
G01*
X-383359Y-1709376D01*
X114119Y-1694136D02*
G01*
X-34378Y-1694136D01*
X-34378Y-1912658D02*
G01*
X114119Y-1912658D01*
X129359Y-1897418D02*
G01*
X129359Y-1709376D01*
X171320Y3486101D02*
G01*
X307312Y3486101D01*
X307312Y3270283D01*
X171320Y3270283D01*
X-18920Y3486101D02*
G01*
X-154912Y3486101D01*
X-154912Y3270283D01*
X-18920Y3270283D01*
X133479Y2635285D02*
G01*
X-2512Y2635285D01*
X-2512Y2851104D01*
X133479Y2851104D01*
X323720Y2635285D02*
G01*
X459712Y2635285D01*
X459712Y2851104D01*
X323720Y2851104D01*
X-18920Y2914685D02*
G01*
X-154912Y2914685D01*
X-154912Y3130504D01*
X-18920Y3130504D01*
X171320Y2914685D02*
G01*
X307312Y2914685D01*
X307312Y3130504D01*
X171320Y3130504D01*
X349290Y-362079D02*
G01*
X349290Y-226087D01*
X565109Y-226087D01*
X565109Y-362079D01*
X349290Y-552320D02*
G01*
X349290Y-688312D01*
X565109Y-688312D01*
X565109Y-552320D01*
X209679Y958888D02*
G01*
X73687Y958888D01*
X73687Y1174706D01*
X209679Y1174706D01*
X399920Y958888D02*
G01*
X535912Y958888D01*
X535912Y1174706D01*
X399920Y1174706D01*
X-209679Y1504906D02*
G01*
X-73687Y1504906D01*
X-73687Y1289088D01*
X-209679Y1289088D01*
X-399920Y1504906D02*
G01*
X-535912Y1504906D01*
X-535912Y1289088D01*
X-399920Y1289088D01*
X95120Y869906D02*
G01*
X231112Y869906D01*
X231112Y654088D01*
X95120Y654088D01*
X-95120Y869906D02*
G01*
X-231112Y869906D01*
X-231112Y654088D01*
X-95120Y654088D01*
X349290Y-971677D02*
G01*
X349290Y-835685D01*
X565109Y-835685D01*
X565109Y-971677D01*
X349290Y-1161917D02*
G01*
X349290Y-1297909D01*
X565109Y-1297909D01*
X565109Y-1161917D01*
X-145920Y-1581106D02*
G01*
X-281912Y-1581106D01*
X-281912Y-1365288D01*
X-145920Y-1365288D01*
X44320Y-1581106D02*
G01*
X180312Y-1581106D01*
X180312Y-1365288D01*
X44320Y-1365288D01*
X405020Y1905254D02*
G01*
X405020Y2209535D01*
X-100220Y2209535D01*
X-100220Y1905254D01*
X405020Y1905254D01*
G75*
G01*
X-215720Y-2319058D02*
G02*
X-230960Y-2303818I0J15240D01*
G75*
G01*
X-230960Y-2115777D02*
G02*
X-215720Y-2100537I15240J0D01*
G75*
G01*
X266520Y-2319058D02*
G03*
X281760Y-2303818I0J15240D01*
G75*
G01*
X281760Y-2115777D02*
G03*
X266520Y-2100537I-15240J0D01*
G75*
G01*
X-368120Y-1912658D02*
G02*
X-383360Y-1897418I0J15240D01*
G75*
G01*
X-383360Y-1709377D02*
G02*
X-368120Y-1694137I15240J0D01*
G75*
G01*
X114120Y-1912658D02*
G03*
X129360Y-1897418I0J15240D01*
G75*
G01*
X129360Y-1709377D02*
G03*
X114120Y-1694137I-15240J0D01*
D26*
G75*
G01
X357911Y1980489D02*
G03X357911Y1980489I-15011J0D01*
G75*
G01
X431851Y1780616D02*
G03X431851Y1780616I-15011J0D01*
M02*
